<svg width="162" height="42" viewBox="0 0 162 42" fill="none" xmlns="http://www.w3.org/2000/svg">
<g clip-path="url(#clip0_11053_27306)">
<path d="M17.5 38.5C27.165 38.5 35 30.665 35 21C35 11.335 27.165 3.5 17.5 3.5C7.83502 3.5 0 11.335 0 21C0 30.665 7.83502 38.5 17.5 38.5Z" fill="#B8FBF1"/>
<path d="M16.479 35.7292C24.211 35.7292 30.479 29.4612 30.479 21.7292C30.479 13.9972 24.211 7.72919 16.479 7.72919C8.74702 7.72919 2.479 13.9972 2.479 21.7292C2.479 29.4612 8.74702 35.7292 16.479 35.7292Z" fill="#E6FFFB"/>
<path d="M12.1171 24.3128C11.9734 24.507 12.0143 24.781 12.2086 24.9247C12.4028 25.0683 12.6768 25.0273 12.8205 24.8331L12.1171 24.3128ZM16.4063 19.25L16.7197 18.9448C16.6301 18.8529 16.5049 18.8048 16.3767 18.8135C16.2486 18.8221 16.1309 18.8866 16.0545 18.9898L16.4063 19.25ZM19.1042 22.0208L18.7908 22.3261C18.877 22.4146 18.9967 22.4626 19.1202 22.458C19.2438 22.4535 19.3595 22.3969 19.439 22.3023L19.1042 22.0208ZM23.7693 16.9518C23.7484 16.7111 23.5364 16.5329 23.2956 16.5537L19.3728 16.8935C19.132 16.9143 18.9538 17.1264 18.9747 17.3671C18.9955 17.6078 19.2076 17.7861 19.4484 17.7652L22.9352 17.4632L23.2373 20.9501C23.2581 21.1909 23.4702 21.3691 23.7109 21.3483C23.9515 21.3274 24.1299 21.1154 24.109 20.8746L23.7693 16.9518ZM12.8205 24.8331L16.758 19.5102L16.0545 18.9898L12.1171 24.3128L12.8205 24.8331ZM16.0929 19.5552L18.7908 22.3261L19.4176 21.7156L16.7197 18.9448L16.0929 19.5552ZM19.439 22.3023L23.6682 17.2711L22.9985 16.7081L18.7694 21.7394L19.439 22.3023Z" fill="#41B34E"/>
<path d="M16.6979 22.4097C16.6979 22.2084 16.5347 22.0452 16.3333 22.0452C16.1319 22.0452 15.9688 22.2084 15.9688 22.4097H16.6979ZM15.9688 27.7327V28.0972H16.6979V27.7327H15.9688ZM15.9688 22.4097V27.7327H16.6979V22.4097H15.9688Z" fill="#3B82F6"/>
<path d="M22.3854 22.8958C22.3854 22.6944 22.2222 22.5312 22.0208 22.5312C21.8194 22.5312 21.6562 22.6944 21.6562 22.8958H22.3854ZM21.6562 27.4167V27.7813H22.3854V27.4167H21.6562ZM21.6562 22.8958V27.4167H22.3854V22.8958H21.6562Z" fill="#3B82F6"/>
<path d="M19.1769 24.2083C19.1769 24.0069 19.0137 23.8438 18.8123 23.8438C18.6109 23.8438 18.4478 24.0069 18.4478 24.2083H19.1769ZM18.4478 27.4167V27.7812H19.1769V27.4167H18.4478ZM18.4478 24.2083V27.4167H19.1769V24.2083H18.4478Z" fill="#3B82F6"/>
<path d="M14.5104 25.375C14.5104 25.1736 14.3472 25.0104 14.1458 25.0104C13.9445 25.0104 13.7812 25.1736 13.7812 25.375H14.5104ZM13.7812 27.4167V27.7813H14.5104V27.4167H13.7812ZM13.7812 25.375V27.4167H14.5104V25.375H13.7812Z" fill="#3B82F6"/>
<path d="M10.354 13.8542V28.1459H24.5728" stroke="#128474" stroke-linecap="round" stroke-linejoin="round"/>
</g>
<path d="M42.8 7.6C42.3067 7.6 41.8933 7.44667 41.56 7.14C41.24 6.82 41.08 6.42667 41.08 5.96C41.08 5.49333 41.24 5.10667 41.56 4.8C41.8933 4.48 42.3067 4.32 42.8 4.32C43.2933 4.32 43.7 4.48 44.02 4.8C44.3533 5.10667 44.52 5.49333 44.52 5.96C44.52 6.42667 44.3533 6.82 44.02 7.14C43.7 7.44667 43.2933 7.6 42.8 7.6ZM44.18 8.92V20H41.38V8.92H44.18ZM58.8864 20H56.0864L49.7464 10.42V20H46.9464V6.02H49.7464L56.0864 15.62V6.02H58.8864V20ZM71.1534 6.04V8.3H67.4334V20H64.6334V8.3H60.9134V6.04H71.1534ZM75.9964 8.3V11.8H80.6964V14.02H75.9964V17.72H81.2964V20H73.1964V6.02H81.2964V8.3H75.9964ZM93.5609 10.24C93.2409 9.65333 92.8009 9.20667 92.2409 8.9C91.6809 8.59333 91.0276 8.44 90.2809 8.44C89.4543 8.44 88.7209 8.62667 88.0809 9C87.4409 9.37333 86.9409 9.90667 86.5809 10.6C86.2209 11.2933 86.0409 12.0933 86.0409 13C86.0409 13.9333 86.2209 14.7467 86.5809 15.44C86.9543 16.1333 87.4676 16.6667 88.1209 17.04C88.7743 17.4133 89.5343 17.6 90.4009 17.6C91.4676 17.6 92.3409 17.32 93.0209 16.76C93.7009 16.1867 94.1476 15.3933 94.3609 14.38H89.5609V12.24H97.1209V14.68C96.9343 15.6533 96.5343 16.5533 95.9209 17.38C95.3076 18.2067 94.5143 18.8733 93.5409 19.38C92.5809 19.8733 91.5009 20.12 90.3009 20.12C88.9543 20.12 87.7343 19.82 86.6409 19.22C85.5609 18.6067 84.7076 17.76 84.0809 16.68C83.4676 15.6 83.1609 14.3733 83.1609 13C83.1609 11.6267 83.4676 10.4 84.0809 9.32C84.7076 8.22667 85.5609 7.38 86.6409 6.78C87.7343 6.16667 88.9476 5.86 90.2809 5.86C91.8543 5.86 93.2209 6.24667 94.3809 7.02C95.5409 7.78 96.3409 8.85333 96.7809 10.24H93.5609ZM106.393 20L103.313 14.56H101.993V20H99.1925V6.04H104.433C105.513 6.04 106.433 6.23333 107.193 6.62C107.953 6.99333 108.519 7.50667 108.893 8.16C109.279 8.8 109.473 9.52 109.473 10.32C109.473 11.24 109.206 12.0733 108.673 12.82C108.139 13.5533 107.346 14.06 106.293 14.34L109.633 20H106.393ZM101.993 12.46H104.333C105.093 12.46 105.659 12.28 106.033 11.92C106.406 11.5467 106.593 11.0333 106.593 10.38C106.593 9.74 106.406 9.24667 106.033 8.9C105.659 8.54 105.093 8.36 104.333 8.36H101.993V12.46ZM120.565 17.34H115.005L114.085 20H111.145L116.165 6.02H119.425L124.445 20H121.485L120.565 17.34ZM119.805 15.1L117.785 9.26L115.765 15.1H119.805ZM135.821 6.04V8.3H132.101V20H129.301V8.3H125.581V6.04H135.821ZM140.664 8.3V11.8H145.364V14.02H140.664V17.72H145.964V20H137.864V6.02H145.964V8.3H140.664ZM153.389 6.04C154.856 6.04 156.142 6.32667 157.249 6.9C158.369 7.47333 159.229 8.29333 159.829 9.36C160.442 10.4133 160.749 11.64 160.749 13.04C160.749 14.44 160.442 15.6667 159.829 16.72C159.229 17.76 158.369 18.5667 157.249 19.14C156.142 19.7133 154.856 20 153.389 20H148.509V6.04H153.389ZM153.289 17.62C154.756 17.62 155.889 17.22 156.689 16.42C157.489 15.62 157.889 14.4933 157.889 13.04C157.889 11.5867 157.489 10.4533 156.689 9.64C155.889 8.81333 154.756 8.4 153.289 8.4H151.309V17.62H153.289Z" fill="#4F4F4F"/>
<path d="M45.964 30.974C46.3187 31.03 46.6407 31.1747 46.93 31.408C47.2287 31.6413 47.462 31.9307 47.63 32.276C47.8073 32.6213 47.896 32.99 47.896 33.382C47.896 33.8767 47.77 34.3247 47.518 34.726C47.266 35.118 46.8973 35.4307 46.412 35.664C45.936 35.888 45.3713 36 44.718 36H41.078V26.242H44.578C45.2407 26.242 45.8053 26.354 46.272 26.578C46.7387 26.7927 47.0887 27.0867 47.322 27.46C47.5553 27.8333 47.672 28.2533 47.672 28.72C47.672 29.2987 47.5133 29.7793 47.196 30.162C46.888 30.5353 46.4773 30.806 45.964 30.974ZM42.352 30.456H44.494C45.0913 30.456 45.5533 30.316 45.88 30.036C46.2067 29.756 46.37 29.3687 46.37 28.874C46.37 28.3793 46.2067 27.992 45.88 27.712C45.5533 27.432 45.082 27.292 44.466 27.292H42.352V30.456ZM44.606 34.95C45.2407 34.95 45.7353 34.8007 46.09 34.502C46.4447 34.2033 46.622 33.788 46.622 33.256C46.622 32.7147 46.4353 32.29 46.062 31.982C45.6887 31.6647 45.1893 31.506 44.564 31.506H42.352V34.95H44.606ZM56.4679 28.328V36H55.1939V34.866C54.9513 35.258 54.6106 35.566 54.1719 35.79C53.7426 36.0047 53.2666 36.112 52.7439 36.112C52.1466 36.112 51.6099 35.9907 51.1339 35.748C50.6579 35.496 50.2799 35.1227 49.9999 34.628C49.7293 34.1333 49.5939 33.5313 49.5939 32.822V28.328H50.8539V32.654C50.8539 33.41 51.0453 33.9933 51.4279 34.404C51.8106 34.8053 52.3333 35.006 52.9959 35.006C53.6773 35.006 54.2139 34.796 54.6059 34.376C54.9979 33.956 55.1939 33.3447 55.1939 32.542V28.328H56.4679ZM61.335 36.126C60.747 36.126 60.2197 36.028 59.753 35.832C59.2863 35.6267 58.9177 35.3467 58.647 34.992C58.3763 34.628 58.227 34.2127 58.199 33.746H59.515C59.5523 34.1287 59.7297 34.4413 60.047 34.684C60.3737 34.9267 60.7983 35.048 61.321 35.048C61.8063 35.048 62.189 34.9407 62.469 34.726C62.749 34.5113 62.889 34.2407 62.889 33.914C62.889 33.578 62.7397 33.3307 62.441 33.172C62.1423 33.004 61.6803 32.8407 61.055 32.682C60.4857 32.5327 60.019 32.3833 59.655 32.234C59.3003 32.0753 58.9923 31.8467 58.731 31.548C58.479 31.24 58.353 30.8387 58.353 30.344C58.353 29.952 58.4697 29.5927 58.703 29.266C58.9363 28.9393 59.2677 28.6827 59.697 28.496C60.1263 28.3 60.6163 28.202 61.167 28.202C62.0163 28.202 62.7023 28.4167 63.225 28.846C63.7477 29.2753 64.0277 29.8633 64.065 30.61H62.791C62.763 30.2087 62.5997 29.8867 62.301 29.644C62.0117 29.4013 61.6197 29.28 61.125 29.28C60.6677 29.28 60.3037 29.378 60.033 29.574C59.7623 29.77 59.627 30.0267 59.627 30.344C59.627 30.596 59.7063 30.806 59.865 30.974C60.033 31.1327 60.2383 31.2633 60.481 31.366C60.733 31.4593 61.0783 31.5667 61.517 31.688C62.0677 31.8373 62.5157 31.9867 62.861 32.136C63.2063 32.276 63.5003 32.4907 63.743 32.78C63.995 33.0693 64.1257 33.4473 64.135 33.914C64.135 34.334 64.0183 34.712 63.785 35.048C63.5517 35.384 63.2203 35.65 62.791 35.846C62.371 36.0327 61.8857 36.126 61.335 36.126ZM66.5915 27.082C66.3488 27.082 66.1435 26.998 65.9755 26.83C65.8075 26.662 65.7235 26.4567 65.7235 26.214C65.7235 25.9713 65.8075 25.766 65.9755 25.598C66.1435 25.43 66.3488 25.346 66.5915 25.346C66.8248 25.346 67.0208 25.43 67.1795 25.598C67.3475 25.766 67.4315 25.9713 67.4315 26.214C67.4315 26.4567 67.3475 26.662 67.1795 26.83C67.0208 26.998 66.8248 27.082 66.5915 27.082ZM67.2075 28.328V36H65.9335V28.328H67.2075ZM73.1168 28.188C74.0501 28.188 74.8061 28.4727 75.3848 29.042C75.9634 29.602 76.2528 30.414 76.2528 31.478V36H74.9928V31.66C74.9928 30.8947 74.8014 30.3113 74.4188 29.91C74.0361 29.4993 73.5134 29.294 72.8508 29.294C72.1788 29.294 71.6421 29.504 71.2408 29.924C70.8488 30.344 70.6528 30.9553 70.6528 31.758V36H69.3788V28.328H70.6528V29.42C70.9048 29.028 71.2454 28.7247 71.6748 28.51C72.1134 28.2953 72.5941 28.188 73.1168 28.188ZM85.3339 31.87C85.3339 32.1127 85.3199 32.3693 85.2919 32.64H79.1599C79.2065 33.396 79.4632 33.9887 79.9299 34.418C80.4059 34.838 80.9799 35.048 81.6519 35.048C82.2025 35.048 82.6599 34.922 83.0239 34.67C83.3972 34.4087 83.6585 34.0633 83.8079 33.634H85.1799C84.9745 34.3713 84.5639 34.9733 83.9479 35.44C83.3319 35.8973 82.5665 36.126 81.6519 36.126C80.9239 36.126 80.2705 35.9627 79.6919 35.636C79.1225 35.3093 78.6745 34.8473 78.3479 34.25C78.0212 33.6433 77.8579 32.9433 77.8579 32.15C77.8579 31.3567 78.0165 30.6613 78.3339 30.064C78.6512 29.4667 79.0945 29.0093 79.6639 28.692C80.2425 28.3653 80.9052 28.202 81.6519 28.202C82.3799 28.202 83.0239 28.3607 83.5839 28.678C84.1439 28.9953 84.5732 29.434 84.8719 29.994C85.1799 30.5447 85.3339 31.17 85.3339 31.87ZM84.0179 31.604C84.0179 31.1187 83.9105 30.7033 83.6959 30.358C83.4812 30.0033 83.1872 29.7373 82.8139 29.56C82.4499 29.3733 82.0439 29.28 81.5959 29.28C80.9519 29.28 80.4012 29.4853 79.9439 29.896C79.4959 30.3067 79.2392 30.876 79.1739 31.604H84.0179ZM89.7315 36.126C89.1435 36.126 88.6162 36.028 88.1495 35.832C87.6828 35.6267 87.3142 35.3467 87.0435 34.992C86.7728 34.628 86.6235 34.2127 86.5955 33.746H87.9115C87.9488 34.1287 88.1262 34.4413 88.4435 34.684C88.7702 34.9267 89.1948 35.048 89.7175 35.048C90.2028 35.048 90.5855 34.9407 90.8655 34.726C91.1455 34.5113 91.2855 34.2407 91.2855 33.914C91.2855 33.578 91.1362 33.3307 90.8375 33.172C90.5388 33.004 90.0768 32.8407 89.4515 32.682C88.8822 32.5327 88.4155 32.3833 88.0515 32.234C87.6968 32.0753 87.3888 31.8467 87.1275 31.548C86.8755 31.24 86.7495 30.8387 86.7495 30.344C86.7495 29.952 86.8662 29.5927 87.0995 29.266C87.3328 28.9393 87.6642 28.6827 88.0935 28.496C88.5228 28.3 89.0128 28.202 89.5635 28.202C90.4128 28.202 91.0988 28.4167 91.6215 28.846C92.1442 29.2753 92.4242 29.8633 92.4615 30.61H91.1875C91.1595 30.2087 90.9962 29.8867 90.6975 29.644C90.4082 29.4013 90.0162 29.28 89.5215 29.28C89.0642 29.28 88.7002 29.378 88.4295 29.574C88.1588 29.77 88.0235 30.0267 88.0235 30.344C88.0235 30.596 88.1028 30.806 88.2615 30.974C88.4295 31.1327 88.6348 31.2633 88.8775 31.366C89.1295 31.4593 89.4748 31.5667 89.9135 31.688C90.4642 31.8373 90.9122 31.9867 91.2575 32.136C91.6028 32.276 91.8968 32.4907 92.1395 32.78C92.3915 33.0693 92.5222 33.4473 92.5315 33.914C92.5315 34.334 92.4148 34.712 92.1815 35.048C91.9482 35.384 91.6168 35.65 91.1875 35.846C90.7675 36.0327 90.2822 36.126 89.7315 36.126ZM97.046 36.126C96.458 36.126 95.9306 36.028 95.464 35.832C94.9973 35.6267 94.6286 35.3467 94.358 34.992C94.0873 34.628 93.938 34.2127 93.91 33.746H95.226C95.2633 34.1287 95.4406 34.4413 95.758 34.684C96.0846 34.9267 96.5093 35.048 97.032 35.048C97.5173 35.048 97.9 34.9407 98.18 34.726C98.46 34.5113 98.6 34.2407 98.6 33.914C98.6 33.578 98.4506 33.3307 98.152 33.172C97.8533 33.004 97.3913 32.8407 96.766 32.682C96.1966 32.5327 95.73 32.3833 95.366 32.234C95.0113 32.0753 94.7033 31.8467 94.442 31.548C94.19 31.24 94.064 30.8387 94.064 30.344C94.064 29.952 94.1806 29.5927 94.414 29.266C94.6473 28.9393 94.9786 28.6827 95.408 28.496C95.8373 28.3 96.3273 28.202 96.878 28.202C97.7273 28.202 98.4133 28.4167 98.936 28.846C99.4586 29.2753 99.7386 29.8633 99.776 30.61H98.502C98.474 30.2087 98.3106 29.8867 98.012 29.644C97.7226 29.4013 97.3306 29.28 96.836 29.28C96.3786 29.28 96.0146 29.378 95.744 29.574C95.4733 29.77 95.338 30.0267 95.338 30.344C95.338 30.596 95.4173 30.806 95.576 30.974C95.744 31.1327 95.9493 31.2633 96.192 31.366C96.444 31.4593 96.7893 31.5667 97.228 31.688C97.7786 31.8373 98.2266 31.9867 98.572 32.136C98.9173 32.276 99.2113 32.4907 99.454 32.78C99.706 33.0693 99.8366 33.4473 99.846 33.914C99.846 34.334 99.7293 34.712 99.496 35.048C99.2626 35.384 98.9313 35.65 98.502 35.846C98.082 36.0327 97.5966 36.126 97.046 36.126ZM111.901 29.098C111.901 29.91 111.621 30.5867 111.061 31.128C110.51 31.66 109.665 31.926 108.527 31.926H106.651V36H105.377V26.242H108.527C109.628 26.242 110.463 26.508 111.033 27.04C111.611 27.572 111.901 28.258 111.901 29.098ZM108.527 30.876C109.236 30.876 109.759 30.722 110.095 30.414C110.431 30.106 110.599 29.6673 110.599 29.098C110.599 27.894 109.908 27.292 108.527 27.292H106.651V30.876H108.527ZM114.758 25.64V36H113.484V25.64H114.758ZM116.454 32.136C116.454 31.352 116.612 30.666 116.93 30.078C117.247 29.4807 117.681 29.0187 118.232 28.692C118.792 28.3653 119.412 28.202 120.094 28.202C120.766 28.202 121.349 28.3467 121.844 28.636C122.338 28.9253 122.707 29.2893 122.95 29.728V28.328H124.238V36H122.95V34.572C122.698 35.02 122.32 35.3933 121.816 35.692C121.321 35.9813 120.742 36.126 120.08 36.126C119.398 36.126 118.782 35.958 118.232 35.622C117.681 35.286 117.247 34.8147 116.93 34.208C116.612 33.6013 116.454 32.9107 116.454 32.136ZM122.95 32.15C122.95 31.5713 122.833 31.0673 122.6 30.638C122.366 30.2087 122.049 29.882 121.648 29.658C121.256 29.4247 120.822 29.308 120.346 29.308C119.87 29.308 119.436 29.42 119.044 29.644C118.652 29.868 118.339 30.1947 118.106 30.624C117.872 31.0533 117.756 31.5573 117.756 32.136C117.756 32.724 117.872 33.2373 118.106 33.676C118.339 34.1053 118.652 34.4367 119.044 34.67C119.436 34.894 119.87 35.006 120.346 35.006C120.822 35.006 121.256 34.894 121.648 34.67C122.049 34.4367 122.366 34.1053 122.6 33.676C122.833 33.2373 122.95 32.7287 122.95 32.15ZM130.129 28.188C131.062 28.188 131.818 28.4727 132.397 29.042C132.975 29.602 133.265 30.414 133.265 31.478V36H132.005V31.66C132.005 30.8947 131.813 30.3113 131.431 29.91C131.048 29.4993 130.525 29.294 129.863 29.294C129.191 29.294 128.654 29.504 128.253 29.924C127.861 30.344 127.665 30.9553 127.665 31.758V36H126.391V28.328H127.665V29.42C127.917 29.028 128.257 28.7247 128.687 28.51C129.125 28.2953 129.606 28.188 130.129 28.188ZM139.084 28.188C140.017 28.188 140.773 28.4727 141.352 29.042C141.93 29.602 142.22 30.414 142.22 31.478V36H140.96V31.66C140.96 30.8947 140.768 30.3113 140.386 29.91C140.003 29.4993 139.48 29.294 138.818 29.294C138.146 29.294 137.609 29.504 137.208 29.924C136.816 30.344 136.62 30.9553 136.62 31.758V36H135.346V28.328H136.62V29.42C136.872 29.028 137.212 28.7247 137.642 28.51C138.08 28.2953 138.561 28.188 139.084 28.188ZM151.301 31.87C151.301 32.1127 151.287 32.3693 151.259 32.64H145.127C145.173 33.396 145.43 33.9887 145.897 34.418C146.373 34.838 146.947 35.048 147.619 35.048C148.169 35.048 148.627 34.922 148.991 34.67C149.364 34.4087 149.625 34.0633 149.775 33.634H151.147C150.941 34.3713 150.531 34.9733 149.915 35.44C149.299 35.8973 148.533 36.126 147.619 36.126C146.891 36.126 146.237 35.9627 145.659 35.636C145.089 35.3093 144.641 34.8473 144.315 34.25C143.988 33.6433 143.825 32.9433 143.825 32.15C143.825 31.3567 143.983 30.6613 144.301 30.064C144.618 29.4667 145.061 29.0093 145.631 28.692C146.209 28.3653 146.872 28.202 147.619 28.202C148.347 28.202 148.991 28.3607 149.551 28.678C150.111 28.9953 150.54 29.434 150.839 29.994C151.147 30.5447 151.301 31.17 151.301 31.87ZM149.985 31.604C149.985 31.1187 149.877 30.7033 149.663 30.358C149.448 30.0033 149.154 29.7373 148.781 29.56C148.417 29.3733 148.011 29.28 147.563 29.28C146.919 29.28 146.368 29.4853 145.911 29.896C145.463 30.3067 145.206 30.876 145.141 31.604H149.985ZM154.256 29.574C154.48 29.1353 154.798 28.7947 155.208 28.552C155.628 28.3093 156.137 28.188 156.734 28.188V29.504H156.398C154.97 29.504 154.256 30.2787 154.256 31.828V36H152.982V28.328H154.256V29.574Z" fill="#727272"/>
<defs>
<clipPath id="clip0_11053_27306">
<rect width="35" height="35" fill="white" transform="translate(0 3.5)"/>
</clipPath>
</defs>
</svg>
