<svg width="16" height="17" viewBox="0 0 16 17" fill="none" xmlns="http://www.w3.org/2000/svg">
<path d="M4 11.5H2V14.5H4V11.5ZM9 7.5H7V14.5H9V7.5ZM14 2.5V14.5H12V2.5H14ZM12 1.5C11.7348 1.5 11.4804 1.60536 11.2929 1.79289C11.1054 1.98043 11 2.23478 11 2.5V14.5C11 14.7652 11.1054 15.0196 11.2929 15.2071C11.4804 15.3946 11.7348 15.5 12 15.5H14C14.2652 15.5 14.5196 15.3946 14.7071 15.2071C14.8946 15.0196 15 14.7652 15 14.5V2.5C15 2.23478 14.8946 1.98043 14.7071 1.79289C14.5196 1.60536 14.2652 1.5 14 1.5H12ZM6 7.5C6 7.23478 6.10536 6.98043 6.29289 6.79289C6.48043 6.60536 6.73478 6.5 7 6.5H9C9.26522 6.5 9.51957 6.60536 9.70711 6.79289C9.89464 6.98043 10 7.23478 10 7.5V14.5C10 14.7652 9.89464 15.0196 9.70711 15.2071C9.51957 15.3946 9.26522 15.5 9 15.5H7C6.73478 15.5 6.48043 15.3946 6.29289 15.2071C6.10536 15.0196 6 14.7652 6 14.5V7.5ZM1 11.5C1 11.2348 1.10536 10.9804 1.29289 10.7929C1.48043 10.6054 1.73478 10.5 2 10.5H4C4.26522 10.5 4.51957 10.6054 4.70711 10.7929C4.89464 10.9804 5 11.2348 5 11.5V14.5C5 14.7652 4.89464 15.0196 4.70711 15.2071C4.51957 15.3946 4.26522 15.5 4 15.5H2C1.73478 15.5 1.48043 15.3946 1.29289 15.2071C1.10536 15.0196 1 14.7652 1 14.5V11.5Z" fill="#222222"/>
</svg>
