<svg width="16" height="17" viewBox="0 0 16 17" fill="none" xmlns="http://www.w3.org/2000/svg">
<g clip-path="url(#clip0_262_3691)">
<path d="M2 6.5H7V10.5H2V6.5Z" fill="#222222"/>
<path d="M2 4.5C1.46957 4.5 0.960859 4.71071 0.585786 5.08579C0.210714 5.46086 0 5.96957 0 6.5L0 10.5C0 11.0304 0.210714 11.5391 0.585786 11.9142C0.960859 12.2893 1.46957 12.5 2 12.5H12C12.5304 12.5 13.0391 12.2893 13.4142 11.9142C13.7893 11.5391 14 11.0304 14 10.5V6.5C14 5.96957 13.7893 5.46086 13.4142 5.08579C13.0391 4.71071 12.5304 4.5 12 4.5H2ZM12 5.5C12.2652 5.5 12.5196 5.60536 12.7071 5.79289C12.8946 5.98043 13 6.23478 13 6.5V10.5C13 10.7652 12.8946 11.0196 12.7071 11.2071C12.5196 11.3946 12.2652 11.5 12 11.5H2C1.73478 11.5 1.48043 11.3946 1.29289 11.2071C1.10536 11.0196 1 10.7652 1 10.5V6.5C1 6.23478 1.10536 5.98043 1.29289 5.79289C1.48043 5.60536 1.73478 5.5 2 5.5H12ZM16 8.5C16 8.89782 15.842 9.27936 15.5607 9.56066C15.2794 9.84196 14.8978 10 14.5 10V7C14.8978 7 15.2794 7.15804 15.5607 7.43934C15.842 7.72064 16 8.10218 16 8.5Z" fill="#222222"/>
</g>
<defs>
<clipPath id="clip0_262_3691">
<rect width="16" height="16" fill="white" transform="translate(0 0.5)"/>
</clipPath>
</defs>
</svg>
