<svg width="16" height="17" viewBox="0 0 16 17" fill="none" xmlns="http://www.w3.org/2000/svg">
<g clip-path="url(#clip0_249_355)">
<path d="M8 16.5C8.53043 16.5 9.03914 16.2893 9.41421 15.9142C9.78929 15.5391 10 15.0304 10 14.5H6C6 15.0304 6.21071 15.5391 6.58579 15.9142C6.96086 16.2893 7.46957 16.5 8 16.5ZM8 2.41801L7.203 2.57901C6.29879 2.76286 5.48594 3.25366 4.9022 3.96826C4.31846 4.68286 3.99972 5.57729 4 6.50001C4 7.12801 3.866 8.697 3.541 10.242C3.381 11.009 3.165 11.808 2.878 12.5H13.122C12.835 11.808 12.62 11.01 12.459 10.242C12.134 8.697 12 7.12801 12 6.50001C12 5.57746 11.6812 4.68326 11.0975 3.96887C10.5138 3.25448 9.70104 2.76382 8.797 2.58001L8 2.41801ZM14.22 12.5C14.443 12.947 14.701 13.301 15 13.5H1C1.299 13.301 1.557 12.947 1.78 12.5C2.68 10.7 3 7.38001 3 6.50001C3 4.08001 4.72 2.06001 7.005 1.59901C6.99104 1.45996 7.00638 1.31953 7.05003 1.18678C7.09368 1.05403 7.16467 0.931895 7.25842 0.828263C7.35217 0.724632 7.4666 0.6418 7.59433 0.58511C7.72206 0.52842 7.86026 0.49913 8 0.49913C8.13974 0.49913 8.27794 0.52842 8.40567 0.58511C8.5334 0.6418 8.64783 0.724632 8.74158 0.828263C8.83533 0.931895 8.90632 1.05403 8.94997 1.18678C8.99362 1.31953 9.00896 1.45996 8.995 1.59901C10.1255 1.82856 11.1418 2.44192 11.8717 3.33514C12.6016 4.22836 13.0002 5.34648 13 6.50001C13 7.38001 13.32 10.7 14.22 12.5Z" fill="#222222"/>
</g>
<defs>
<clipPath id="clip0_249_355">
<rect width="16" height="16" fill="white" transform="translate(0 0.5)"/>
</clipPath>
</defs>
</svg>
