<svg width="16" height="17" viewBox="0 0 16 17" fill="none" xmlns="http://www.w3.org/2000/svg">
<g clip-path="url(#clip0_262_3709)">
<path d="M8.186 1.61297C8.06662 1.56513 7.93338 1.56513 7.814 1.61297L1.846 3.99997L4.25 4.96097L10.404 2.49997L8.186 1.61297ZM11.75 3.03897L5.596 5.49997L8 6.46097L14.154 3.99997L11.75 3.03897ZM15 4.73897L8.5 7.33897V15.261L15 12.661V4.73897ZM7.5 15.262V7.33797L1 4.73897V12.662L7.5 15.262ZM7.443 0.683972C7.80057 0.540971 8.19943 0.540971 8.557 0.683972L15.686 3.53597C15.7787 3.57312 15.8581 3.63716 15.9141 3.71986C15.9701 3.80256 16 3.90012 16 3.99997V12.662C15.9999 12.8618 15.9399 13.057 15.8278 13.2224C15.7157 13.3878 15.5566 13.5158 15.371 13.59L8.186 16.464C8.06662 16.5118 7.93338 16.5118 7.814 16.464L0.63 13.59C0.444251 13.516 0.284942 13.388 0.172642 13.2226C0.0603417 13.0572 0.000206329 12.8619 0 12.662L0 3.99997C2.32399e-05 3.90012 0.0299437 3.80256 0.085907 3.71986C0.14187 3.63716 0.221313 3.57312 0.314 3.53597L7.443 0.683972Z" fill="#222222"/>
</g>
<defs>
<clipPath id="clip0_262_3709">
<rect width="16" height="16" fill="white" transform="translate(0 0.5)"/>
</clipPath>
</defs>
</svg>
