<svg width="16" height="17" viewBox="0 0 16 17" fill="none" xmlns="http://www.w3.org/2000/svg">
<g clip-path="url(#clip0_262_3654)">
<path d="M6 1.5V4.5H1V1.5H6ZM1 0.5C0.734784 0.5 0.48043 0.605357 0.292893 0.792893C0.105357 0.98043 0 1.23478 0 1.5L0 4.5C0 4.76522 0.105357 5.01957 0.292893 5.20711C0.48043 5.39464 0.734784 5.5 1 5.5H6C6.26522 5.5 6.51957 5.39464 6.70711 5.20711C6.89464 5.01957 7 4.76522 7 4.5V1.5C7 1.23478 6.89464 0.98043 6.70711 0.792893C6.51957 0.605357 6.26522 0.5 6 0.5H1ZM15 12.5V15.5H10V12.5H15ZM10 11.5C9.73478 11.5 9.48043 11.6054 9.29289 11.7929C9.10536 11.9804 9 12.2348 9 12.5V15.5C9 15.7652 9.10536 16.0196 9.29289 16.2071C9.48043 16.3946 9.73478 16.5 10 16.5H15C15.2652 16.5 15.5196 16.3946 15.7071 16.2071C15.8946 16.0196 16 15.7652 16 15.5V12.5C16 12.2348 15.8946 11.9804 15.7071 11.7929C15.5196 11.6054 15.2652 11.5 15 11.5H10ZM6 8.5V15.5H1V8.5H6ZM1 7.5C0.734784 7.5 0.48043 7.60536 0.292893 7.79289C0.105357 7.98043 0 8.23478 0 8.5L0 15.5C0 15.7652 0.105357 16.0196 0.292893 16.2071C0.48043 16.3946 0.734784 16.5 1 16.5H6C6.26522 16.5 6.51957 16.3946 6.70711 16.2071C6.89464 16.0196 7 15.7652 7 15.5V8.5C7 8.23478 6.89464 7.98043 6.70711 7.79289C6.51957 7.60536 6.26522 7.5 6 7.5H1ZM15 1.5V8.5H10V1.5H15ZM10 0.5C9.73478 0.5 9.48043 0.605357 9.29289 0.792893C9.10536 0.98043 9 1.23478 9 1.5V8.5C9 8.76522 9.10536 9.01957 9.29289 9.20711C9.48043 9.39464 9.73478 9.5 10 9.5H15C15.2652 9.5 15.5196 9.39464 15.7071 9.20711C15.8946 9.01957 16 8.76522 16 8.5V1.5C16 1.23478 15.8946 0.98043 15.7071 0.792893C15.5196 0.605357 15.2652 0.5 15 0.5H10Z" fill="#128474"/>
</g>
<defs>
<clipPath id="clip0_262_3654">
<rect width="16" height="16" fill="white" transform="translate(0 0.5)"/>
</clipPath>
</defs>
</svg>
