<svg width="16" height="17" viewBox="0 0 16 17" fill="none" xmlns="http://www.w3.org/2000/svg">
<g clip-path="url(#clip0_262_3658)">
<path fill-rule="evenodd" clip-rule="evenodd" d="M0 0.5H1V15.5H16V16.5H0V0.5ZM10 4C10 3.86739 10.0527 3.74021 10.1464 3.64645C10.2402 3.55268 10.3674 3.5 10.5 3.5H14.5C14.6326 3.5 14.7598 3.55268 14.8536 3.64645C14.9473 3.74021 15 3.86739 15 4V8C15 8.13261 14.9473 8.25979 14.8536 8.35355C14.7598 8.44732 14.6326 8.5 14.5 8.5C14.3674 8.5 14.2402 8.44732 14.1464 8.35355C14.0527 8.25979 14 8.13261 14 8V5.4L10.387 9.817C10.3428 9.87099 10.2877 9.91511 10.2254 9.94655C10.1631 9.97798 10.0949 9.99602 10.0252 9.9995C9.9555 10.003 9.88584 9.99184 9.8207 9.96678C9.75556 9.94172 9.69639 9.9033 9.647 9.854L7.06 7.267L3.404 12.294C3.32402 12.3957 3.20774 12.4624 3.07958 12.4802C2.95143 12.4979 2.82138 12.4653 2.71677 12.3892C2.61216 12.3131 2.54113 12.1994 2.51861 12.072C2.49609 11.9446 2.52383 11.8134 2.596 11.706L6.596 6.206C6.63846 6.14751 6.69309 6.09893 6.75613 6.06359C6.81917 6.02825 6.88912 6.00699 6.96117 6.00129C7.03322 5.99559 7.10564 6.00557 7.17346 6.03055C7.24128 6.05554 7.30287 6.09492 7.354 6.146L9.963 8.756L13.445 4.5H10.5C10.3674 4.5 10.2402 4.44732 10.1464 4.35355C10.0527 4.25979 10 4.13261 10 4Z" fill="#222222"/>
</g>
<defs>
<clipPath id="clip0_262_3658">
<rect width="16" height="16" fill="white" transform="translate(0 0.5)"/>
</clipPath>
</defs>
</svg>
