<svg preserveAspectRatio="none" width="392" height="107" viewBox="0 0 392 107" fill="none" xmlns="http://www.w3.org/2000/svg">
<path fill-rule="evenodd" clip-rule="evenodd" d="M338.433 0.078824C317.652 0.078824 299.716 12.0588 290.974 29.4799C282.233 12.0588 264.293 0.078824 243.515 0.078824C222.526 0.078824 204.434 12.3097 195.794 30.0209C187.159 12.3097 169.063 0.078824 148.077 0.078824C127.295 0.078824 109.352 12.0666 100.61 29.4917C91.8731 12.0666 73.9294 0.078824 53.1436 0.078824C23.7964 0.078824 0.000390931 23.9407 0.000390931 53.3732C0.000390931 82.8056 23.7964 106.668 53.1436 106.668C73.9294 106.668 91.8731 94.6837 100.61 77.2547C109.352 94.6837 127.295 106.668 148.077 106.668C169.063 106.668 187.159 94.4406 195.794 76.7255C204.434 94.4406 222.526 106.668 243.515 106.668C264.293 106.668 282.233 94.6876 290.974 77.2665C299.716 94.6876 317.652 106.668 338.433 106.668C367.788 106.668 391.581 82.8056 391.581 53.3732C391.581 23.9407 367.788 0.078824 338.433 0.078824Z" fill="#008579"/>
<path fill-rule="evenodd" clip-rule="evenodd" d="M243.725 70.879C233.869 70.8633 225.91 62.8741 225.89 53.0031C225.91 43.1322 233.869 35.1508 243.725 35.1273C253.556 35.1508 261.524 43.1322 261.539 53.0031C261.524 62.8741 253.556 70.8633 243.725 70.879ZM243.721 21.9791C226.629 21.9791 212.775 35.8682 212.775 53.0031C212.775 70.1381 226.629 84.0272 243.721 84.0272C260.793 84.0272 274.659 70.1381 274.659 53.0031C274.659 35.8682 260.793 21.9791 243.721 21.9791Z" fill="white"/>
<path fill-rule="evenodd" clip-rule="evenodd" d="M314.145 84.2471H313.598V29.0279C313.61 24.5511 316.596 21.9011 320.463 21.8933C322.316 21.9285 324.935 23.1987 326.198 24.9L352.085 59.5306V29.0279C352.089 24.5511 355.076 21.9011 358.946 21.8933C362.808 21.9011 365.791 24.5511 365.799 29.0279V76.9831C365.791 81.4599 362.808 84.1099 358.946 84.1138C357.085 84.0864 354.544 82.7966 353.207 81.1149L327.324 46.892V84.2471H314.145Z" fill="white"/>
<path fill-rule="evenodd" clip-rule="evenodd" d="M169.268 67.9942C168.021 66.0772 165.93 64.9835 163.791 64.9835C162.63 64.9756 161.442 65.3049 160.394 65.991L161.106 67.0847L160.234 66.1125C157.063 68.9624 152.861 70.6991 148.283 70.6991C138.431 70.6834 130.472 62.698 130.453 52.8271C130.472 42.9601 138.431 34.9709 148.283 34.9513C154.882 34.9473 160.887 38.4598 163.955 43.752L164.815 45.2495L173.944 35.8098L173.295 34.9238C167.677 27.1894 158.561 22.152 148.283 22.152C131.195 22.152 117.337 36.045 117.337 53.1799C117.337 70.3149 131.195 84.2 148.283 84.2C155.652 84.2 162.454 81.6206 167.787 77.3006C169.565 76.1402 170.605 74.0704 170.605 71.9614C170.605 70.7618 170.273 69.5426 169.565 68.4607L169.268 67.9942Z" fill="white"/>
<path fill-rule="evenodd" clip-rule="evenodd" d="M53.031 20.9583H52.4798C48.9262 20.9583 46.049 23.8474 46.049 27.4109V85.0056H59.4618V27.4109C59.4618 23.8474 56.5807 20.9583 53.031 20.9583Z" fill="white"/>
</svg>
