<svg width="16" height="17" viewBox="0 0 16 17" fill="none" xmlns="http://www.w3.org/2000/svg">
<g clip-path="url(#clip0_262_3678)">
<path d="M8.00001 1.5C8.53044 1.5 9.03915 1.71071 9.41422 2.08579C9.7893 2.46086 10 2.96957 10 3.5V5.5H6.00001V3.5C6.00001 2.96957 6.21072 2.46086 6.5858 2.08579C6.96087 1.71071 7.46958 1.5 8.00001 1.5ZM11 5.5V3.5C11 2.70435 10.6839 1.94129 10.1213 1.37868C9.55872 0.81607 8.79566 0.5 8.00001 0.5C7.20436 0.5 6.4413 0.81607 5.87869 1.37868C5.31608 1.94129 5.00001 2.70435 5.00001 3.5V5.5H3.36001C3.00089 5.50008 2.65371 5.629 2.38157 5.86334C2.10943 6.09767 1.9304 6.42186 1.87701 6.777L0.850011 13.63C0.796799 13.9856 0.820911 14.3485 0.920701 14.6939C1.02049 15.0393 1.19361 15.3591 1.42826 15.6315C1.6629 15.904 1.95354 16.1226 2.28036 16.2724C2.60717 16.4223 2.96247 16.4999 3.32201 16.5H12.677C13.0366 16.5001 13.392 16.4226 13.719 16.2728C14.0459 16.1229 14.3367 15.9044 14.5714 15.6319C14.8062 15.3595 14.9794 15.0396 15.0793 14.6941C15.1791 14.3486 15.2032 13.9857 15.15 13.63L14.122 6.777C14.0686 6.42204 13.8898 6.09798 13.6178 5.86366C13.3459 5.62935 12.999 5.50032 12.64 5.5H11ZM10 6.5V8C10 8.13261 10.0527 8.25979 10.1465 8.35355C10.2402 8.44732 10.3674 8.5 10.5 8.5C10.6326 8.5 10.7598 8.44732 10.8536 8.35355C10.9473 8.25979 11 8.13261 11 8V6.5H12.639C12.7587 6.50012 12.8744 6.54318 12.965 6.62135C13.0557 6.69952 13.1153 6.80762 13.133 6.926L14.161 13.777C14.1931 13.9904 14.1788 14.2082 14.119 14.4156C14.0592 14.6229 13.9553 14.815 13.8146 14.9785C13.6738 15.1421 13.4994 15.2733 13.3032 15.3633C13.1071 15.4533 12.8938 15.5 12.678 15.5H3.32201C3.1062 15.5 2.89295 15.4533 2.6968 15.3633C2.50066 15.2733 2.32624 15.1421 2.18546 14.9785C2.04468 14.815 1.94085 14.6229 1.88106 14.4156C1.82127 14.2082 1.80693 13.9904 1.83901 13.777L2.86701 6.926C2.8847 6.80779 2.94415 6.69982 3.0346 6.62167C3.12504 6.54352 3.24048 6.50036 3.36001 6.5H5.00001V8C5.00001 8.13261 5.05269 8.25979 5.14646 8.35355C5.24023 8.44732 5.3674 8.5 5.50001 8.5C5.63262 8.5 5.7598 8.44732 5.85356 8.35355C5.94733 8.25979 6.00001 8.13261 6.00001 8V6.5H10Z" fill="#222222"/>
</g>
<defs>
<clipPath id="clip0_262_3678">
<rect width="16" height="16" fill="white" transform="translate(0 0.5)"/>
</clipPath>
</defs>
</svg>
