<svg width="16" height="17" viewBox="0 0 16 17" fill="none" xmlns="http://www.w3.org/2000/svg">
<g clip-path="url(#clip0_262_3671)">
<path d="M14.5 3.5C14.6326 3.5 14.7598 3.55268 14.8536 3.64645C14.9473 3.74021 15 3.86739 15 4V13C15 13.1326 14.9473 13.2598 14.8536 13.3536C14.7598 13.4473 14.6326 13.5 14.5 13.5H1.5C1.36739 13.5 1.24021 13.4473 1.14645 13.3536C1.05268 13.2598 1 13.1326 1 13V4C1 3.86739 1.05268 3.74021 1.14645 3.64645C1.24021 3.55268 1.36739 3.5 1.5 3.5H14.5ZM1.5 2.5C1.10218 2.5 0.720644 2.65804 0.43934 2.93934C0.158035 3.22064 0 3.60218 0 4L0 13C0 13.3978 0.158035 13.7794 0.43934 14.0607C0.720644 14.342 1.10218 14.5 1.5 14.5H14.5C14.8978 14.5 15.2794 14.342 15.5607 14.0607C15.842 13.7794 16 13.3978 16 13V4C16 3.60218 15.842 3.22064 15.5607 2.93934C15.2794 2.65804 14.8978 2.5 14.5 2.5H1.5Z" fill="#222222"/>
<path d="M6.99998 6C6.99998 5.86739 7.05266 5.74022 7.14643 5.64645C7.2402 5.55268 7.36738 5.5 7.49998 5.5H12.5C12.6326 5.5 12.7598 5.55268 12.8535 5.64645C12.9473 5.74022 13 5.86739 13 6C13 6.13261 12.9473 6.25979 12.8535 6.35355C12.7598 6.44732 12.6326 6.5 12.5 6.5H7.49998C7.36738 6.5 7.2402 6.44732 7.14643 6.35355C7.05266 6.25979 6.99998 6.13261 6.99998 6ZM5.50398 5.146C5.55055 5.19245 5.58749 5.24762 5.6127 5.30837C5.6379 5.36911 5.65088 5.43423 5.65088 5.5C5.65088 5.56577 5.6379 5.63089 5.6127 5.69163C5.58749 5.75238 5.55055 5.80756 5.50398 5.854L4.00398 7.354C3.95754 7.40056 3.90236 7.43751 3.84162 7.46271C3.78087 7.48792 3.71575 7.50089 3.64998 7.50089C3.58422 7.50089 3.5191 7.48792 3.45835 7.46271C3.39761 7.43751 3.34243 7.40056 3.29598 7.354L2.79598 6.854C2.7495 6.80751 2.71262 6.75232 2.68746 6.69158C2.6623 6.63085 2.64935 6.56574 2.64935 6.5C2.64935 6.36723 2.7021 6.23989 2.79598 6.146C2.88987 6.05211 3.01721 5.99937 3.14998 5.99937C3.28276 5.99937 3.4101 6.05211 3.50398 6.146L3.64998 6.293L4.79598 5.146C4.84243 5.09944 4.89761 5.06249 4.95835 5.03729C5.0191 5.01208 5.08422 4.99911 5.14998 4.99911C5.21575 4.99911 5.28087 5.01208 5.34162 5.03729C5.40236 5.06249 5.45754 5.09944 5.50398 5.146ZM6.99998 10C6.99998 9.86739 7.05266 9.74022 7.14643 9.64645C7.2402 9.55268 7.36738 9.5 7.49998 9.5H12.5C12.6326 9.5 12.7598 9.55268 12.8535 9.64645C12.9473 9.74022 13 9.86739 13 10C13 10.1326 12.9473 10.2598 12.8535 10.3536C12.7598 10.4473 12.6326 10.5 12.5 10.5H7.49998C7.36738 10.5 7.2402 10.4473 7.14643 10.3536C7.05266 10.2598 6.99998 10.1326 6.99998 10ZM5.50398 9.146C5.55055 9.19245 5.58749 9.24762 5.6127 9.30837C5.6379 9.36911 5.65088 9.43423 5.65088 9.5C5.65088 9.56577 5.6379 9.63089 5.6127 9.69163C5.58749 9.75238 5.55055 9.80756 5.50398 9.854L4.00398 11.354C3.95754 11.4006 3.90236 11.4375 3.84162 11.4627C3.78087 11.4879 3.71575 11.5009 3.64998 11.5009C3.58422 11.5009 3.5191 11.4879 3.45835 11.4627C3.39761 11.4375 3.34243 11.4006 3.29598 11.354L2.79598 10.854C2.7495 10.8075 2.71262 10.7523 2.68746 10.6916C2.6623 10.6308 2.64935 10.5657 2.64935 10.5C2.64935 10.4343 2.6623 10.3692 2.68746 10.3084C2.71262 10.2477 2.7495 10.1925 2.79598 10.146C2.84247 10.0995 2.89766 10.0626 2.9584 10.0375C3.01914 10.0123 3.08424 9.99937 3.14998 9.99937C3.21573 9.99937 3.28083 10.0123 3.34157 10.0375C3.40231 10.0626 3.4575 10.0995 3.50398 10.146L3.64998 10.293L4.79598 9.146C4.84243 9.09944 4.89761 9.0625 4.95835 9.03729C5.0191 9.01208 5.08422 8.99911 5.14998 8.99911C5.21575 8.99911 5.28087 9.01208 5.34162 9.03729C5.40236 9.0625 5.45754 9.09944 5.50398 9.146Z" fill="#222222"/>
</g>
<defs>
<clipPath id="clip0_262_3671">
<rect width="16" height="16" fill="white" transform="translate(0 0.5)"/>
</clipPath>
</defs>
</svg>
