<svg width="25" height="26" viewBox="0 0 25 26" fill="none" xmlns="http://www.w3.org/2000/svg">
<g clip-path="url(#clip0_249_42)">
<path d="M21.875 3.625C22.2894 3.625 22.6868 3.78962 22.9799 4.08265C23.2729 4.37567 23.4375 4.7731 23.4375 5.1875V20.8125C23.4375 21.2269 23.2729 21.6243 22.9799 21.9174C22.6868 22.2104 22.2894 22.375 21.875 22.375H3.125C2.7106 22.375 2.31317 22.2104 2.02015 21.9174C1.72712 21.6243 1.5625 21.2269 1.5625 20.8125V5.1875C1.5625 4.7731 1.72712 4.37567 2.02015 4.08265C2.31317 3.78962 2.7106 3.625 3.125 3.625H21.875ZM3.125 2.0625C2.2962 2.0625 1.50134 2.39174 0.915291 2.97779C0.32924 3.56384 0 4.3587 0 5.1875L0 20.8125C0 21.6413 0.32924 22.4362 0.915291 23.0222C1.50134 23.6083 2.2962 23.9375 3.125 23.9375H21.875C22.7038 23.9375 23.4987 23.6083 24.0847 23.0222C24.6708 22.4362 25 21.6413 25 20.8125V5.1875C25 4.3587 24.6708 3.56384 24.0847 2.97779C23.4987 2.39174 22.7038 2.0625 21.875 2.0625H3.125Z" fill="#757575"/>
<path d="M4.6875 6.75C4.6875 6.3356 4.85212 5.93817 5.14515 5.64515C5.43817 5.35212 5.8356 5.1875 6.25 5.1875H9.375C9.7894 5.1875 10.1868 5.35212 10.4799 5.64515C10.7729 5.93817 10.9375 6.3356 10.9375 6.75V19.25C10.9375 19.6644 10.7729 20.0618 10.4799 20.3549C10.1868 20.6479 9.7894 20.8125 9.375 20.8125H6.25C5.8356 20.8125 5.43817 20.6479 5.14515 20.3549C4.85212 20.0618 4.6875 19.6644 4.6875 19.25V6.75Z" fill="#757575"/>
</g>
<defs>
<clipPath id="clip0_249_42">
<rect width="25" height="25" fill="white" transform="translate(0 0.5)"/>
</clipPath>
</defs>
</svg>
