<svg width="152" height="39" viewBox="0 0 152 39" fill="none" xmlns="http://www.w3.org/2000/svg">
<g clip-path="url(#clip0_2607_2142)">
<path d="M17.5 37C27.165 37 35 29.165 35 19.5C35 9.83502 27.165 2 17.5 2C7.83502 2 0 9.83502 0 19.5C0 29.165 7.83502 37 17.5 37Z" fill="#B8FBF1"/>
<path d="M16.4791 34.2292C24.2111 34.2292 30.4791 27.9612 30.4791 20.2292C30.4791 12.4973 24.2111 6.22925 16.4791 6.22925C8.74714 6.22925 2.47913 12.4973 2.47913 20.2292C2.47913 27.9612 8.74714 34.2292 16.4791 34.2292Z" fill="#E6FFFB"/>
<path d="M12.1171 22.8127C11.9734 23.0069 12.0143 23.281 12.2086 23.4246C12.4028 23.5683 12.6768 23.5273 12.8205 23.333L12.1171 22.8127ZM16.4063 17.7499L16.7197 17.4447C16.6301 17.3528 16.5049 17.3047 16.3767 17.3135C16.2486 17.3221 16.1309 17.3865 16.0545 17.4898L16.4063 17.7499ZM19.1042 20.5208L18.7908 20.826C18.877 20.9145 18.9967 20.9625 19.1202 20.958C19.2438 20.9535 19.3595 20.8969 19.439 20.8022L19.1042 20.5208ZM23.7693 15.4518C23.7484 15.2111 23.5364 15.0328 23.2956 15.0537L19.3728 15.3934C19.132 15.4143 18.9538 15.6263 18.9747 15.867C18.9955 16.1078 19.2076 16.286 19.4484 16.2652L22.9352 15.9632L23.2373 19.4501C23.2581 19.6908 23.4702 19.869 23.7109 19.8482C23.9515 19.8273 24.1299 19.6153 24.109 19.3745L23.7693 15.4518ZM12.8205 23.333L16.758 18.0101L16.0545 17.4898L12.1171 22.8127L12.8205 23.333ZM16.0929 18.0552L18.7908 20.826L19.4176 20.2155L16.7197 17.4447L16.0929 18.0552ZM19.439 20.8022L23.6682 15.771L22.9985 15.208L18.7694 20.2393L19.439 20.8022Z" fill="#41B34E"/>
<path d="M16.6979 20.9097C16.6979 20.7084 16.5347 20.5452 16.3333 20.5452C16.1319 20.5452 15.9688 20.7084 15.9688 20.9097H16.6979ZM15.9688 26.2327V26.5972H16.6979V26.2327H15.9688ZM15.9688 20.9097V26.2327H16.6979V20.9097H15.9688Z" fill="#3B82F6"/>
<path d="M22.3854 21.3958C22.3854 21.1944 22.2222 21.0312 22.0208 21.0312C21.8194 21.0312 21.6562 21.1944 21.6562 21.3958H22.3854ZM21.6562 25.9167V26.2813H22.3854V25.9167H21.6562ZM21.6562 21.3958V25.9167H22.3854V21.3958H21.6562Z" fill="#3B82F6"/>
<path d="M19.177 22.7083C19.177 22.5069 19.0139 22.3438 18.8125 22.3438C18.6111 22.3438 18.4479 22.5069 18.4479 22.7083H19.177ZM18.4479 25.9167V26.2812H19.177V25.9167H18.4479ZM18.4479 22.7083V25.9167H19.177V22.7083H18.4479Z" fill="#3B82F6"/>
<path d="M14.5104 23.8751C14.5104 23.6737 14.3472 23.5105 14.1458 23.5105C13.9445 23.5105 13.7812 23.6737 13.7812 23.8751H14.5104ZM13.7812 25.9167V26.2813H14.5104V25.9167H13.7812ZM13.7812 23.8751V25.9167H14.5104V23.8751H13.7812Z" fill="#3B82F6"/>
<path d="M10.3541 12.3542V26.6459H24.5729" stroke="#128474" stroke-linecap="round" stroke-linejoin="round"/>
</g>
<path d="M44.18 18.28H48.78V20.5H41.38V6.54H44.18V18.28ZM49.8397 14.92C49.8397 13.8 50.0597 12.8067 50.4997 11.94C50.953 11.0733 51.5597 10.4067 52.3197 9.94C53.093 9.47333 53.953 9.24 54.8997 9.24C55.7264 9.24 56.4464 9.40667 57.0597 9.74C57.6864 10.0733 58.1864 10.4933 58.5597 11V9.42H61.3797V20.5H58.5597V18.88C58.1997 19.4 57.6997 19.8333 57.0597 20.18C56.433 20.5133 55.7064 20.68 54.8797 20.68C53.9464 20.68 53.093 20.44 52.3197 19.96C51.5597 19.48 50.953 18.8067 50.4997 17.94C50.0597 17.06 49.8397 16.0533 49.8397 14.92ZM58.5597 14.96C58.5597 14.28 58.4264 13.7 58.1597 13.22C57.893 12.7267 57.533 12.3533 57.0797 12.1C56.6264 11.8333 56.1397 11.7 55.6197 11.7C55.0997 11.7 54.6197 11.8267 54.1797 12.08C53.7397 12.3333 53.3797 12.7067 53.0997 13.2C52.833 13.68 52.6997 14.2533 52.6997 14.92C52.6997 15.5867 52.833 16.1733 53.0997 16.68C53.3797 17.1733 53.7397 17.5533 54.1797 17.82C54.633 18.0867 55.113 18.22 55.6197 18.22C56.1397 18.22 56.6264 18.0933 57.0797 17.84C57.533 17.5733 57.893 17.2 58.1597 16.72C58.4264 16.2267 58.5597 15.64 58.5597 14.96ZM66.9144 11.04C67.2744 10.5067 67.7677 10.0733 68.3944 9.74C69.0344 9.40667 69.761 9.24 70.5744 9.24C71.521 9.24 72.3744 9.47333 73.1344 9.94C73.9077 10.4067 74.5144 11.0733 74.9544 11.94C75.4077 12.7933 75.6344 13.7867 75.6344 14.92C75.6344 16.0533 75.4077 17.06 74.9544 17.94C74.5144 18.8067 73.9077 19.48 73.1344 19.96C72.3744 20.44 71.521 20.68 70.5744 20.68C69.7477 20.68 69.021 20.52 68.3944 20.2C67.781 19.8667 67.2877 19.44 66.9144 18.92V20.5H64.1144V5.7H66.9144V11.04ZM72.7744 14.92C72.7744 14.2533 72.6344 13.68 72.3544 13.2C72.0877 12.7067 71.7277 12.3333 71.2744 12.08C70.8344 11.8267 70.3544 11.7 69.8344 11.7C69.3277 11.7 68.8477 11.8333 68.3944 12.1C67.9544 12.3533 67.5944 12.7267 67.3144 13.22C67.0477 13.7133 66.9144 14.2933 66.9144 14.96C66.9144 15.6267 67.0477 16.2067 67.3144 16.7C67.5944 17.1933 67.9544 17.5733 68.3944 17.84C68.8477 18.0933 69.3277 18.22 69.8344 18.22C70.3544 18.22 70.8344 18.0867 71.2744 17.82C71.7277 17.5533 72.0877 17.1733 72.3544 16.68C72.6344 16.1867 72.7744 15.6 72.7744 14.92ZM82.0091 9.24C82.8357 9.24 83.5624 9.40667 84.1891 9.74C84.8157 10.06 85.3091 10.48 85.6691 11V9.42H88.4891V20.58C88.4891 21.6067 88.2824 22.52 87.8691 23.32C87.4557 24.1333 86.8357 24.7733 86.0091 25.24C85.1824 25.72 84.1824 25.96 83.0091 25.96C81.4357 25.96 80.1424 25.5933 79.1291 24.86C78.1291 24.1267 77.5624 23.1267 77.4291 21.86H80.2091C80.3557 22.3667 80.6691 22.7667 81.1491 23.06C81.6424 23.3667 82.2357 23.52 82.9291 23.52C83.7424 23.52 84.4024 23.2733 84.9091 22.78C85.4157 22.3 85.6691 21.5667 85.6691 20.58V18.86C85.3091 19.38 84.8091 19.8133 84.1691 20.16C83.5424 20.5067 82.8224 20.68 82.0091 20.68C81.0757 20.68 80.2224 20.44 79.4491 19.96C78.6757 19.48 78.0624 18.8067 77.6091 17.94C77.1691 17.06 76.9491 16.0533 76.9491 14.92C76.9491 13.8 77.1691 12.8067 77.6091 11.94C78.0624 11.0733 78.6691 10.4067 79.4291 9.94C80.2024 9.47333 81.0624 9.24 82.0091 9.24ZM85.6691 14.96C85.6691 14.28 85.5357 13.7 85.2691 13.22C85.0024 12.7267 84.6424 12.3533 84.1891 12.1C83.7357 11.8333 83.2491 11.7 82.7291 11.7C82.2091 11.7 81.7291 11.8267 81.2891 12.08C80.8491 12.3333 80.4891 12.7067 80.2091 13.2C79.9424 13.68 79.8091 14.2533 79.8091 14.92C79.8091 15.5867 79.9424 16.1733 80.2091 16.68C80.4891 17.1733 80.8491 17.5533 81.2891 17.82C81.7424 18.0867 82.2224 18.22 82.7291 18.22C83.2491 18.22 83.7357 18.0933 84.1891 17.84C84.6424 17.5733 85.0024 17.2 85.2691 16.72C85.5357 16.2267 85.6691 15.64 85.6691 14.96ZM92.6438 8.1C92.1504 8.1 91.7371 7.94667 91.4038 7.64C91.0838 7.32 90.9238 6.92667 90.9238 6.46C90.9238 5.99333 91.0838 5.60667 91.4038 5.3C91.7371 4.98 92.1504 4.82 92.6438 4.82C93.1371 4.82 93.5438 4.98 93.8638 5.3C94.1971 5.60667 94.3638 5.99333 94.3638 6.46C94.3638 6.92667 94.1971 7.32 93.8638 7.64C93.5438 7.94667 93.1371 8.1 92.6438 8.1ZM94.0238 9.42V20.5H91.2238V9.42H94.0238ZM101.03 20.68C100.123 20.68 99.3102 20.52 98.5902 20.2C97.8702 19.8667 97.2968 19.42 96.8702 18.86C96.4568 18.3 96.2302 17.68 96.1902 17H99.0102C99.0635 17.4267 99.2702 17.78 99.6302 18.06C100.003 18.34 100.463 18.48 101.01 18.48C101.543 18.48 101.957 18.3733 102.25 18.16C102.557 17.9467 102.71 17.6733 102.71 17.34C102.71 16.98 102.523 16.7133 102.15 16.54C101.79 16.3533 101.21 16.1533 100.41 15.94C99.5835 15.74 98.9035 15.5333 98.3702 15.32C97.8502 15.1067 97.3968 14.78 97.0102 14.34C96.6368 13.9 96.4502 13.3067 96.4502 12.56C96.4502 11.9467 96.6235 11.3867 96.9702 10.88C97.3302 10.3733 97.8368 9.97333 98.4902 9.68C99.1568 9.38667 99.9368 9.24 100.83 9.24C102.15 9.24 103.203 9.57333 103.99 10.24C104.777 10.8933 105.21 11.78 105.29 12.9H102.61C102.57 12.46 102.383 12.1133 102.05 11.86C101.73 11.5933 101.297 11.46 100.75 11.46C100.243 11.46 99.8502 11.5533 99.5702 11.74C99.3035 11.9267 99.1702 12.1867 99.1702 12.52C99.1702 12.8933 99.3568 13.18 99.7302 13.38C100.103 13.5667 100.683 13.76 101.47 13.96C102.27 14.16 102.93 14.3667 103.45 14.58C103.97 14.7933 104.417 15.1267 104.79 15.58C105.177 16.02 105.377 16.6067 105.39 17.34C105.39 17.98 105.21 18.5533 104.85 19.06C104.503 19.5667 103.997 19.9667 103.33 20.26C102.677 20.54 101.91 20.68 101.03 20.68ZM110.949 11.72V17.08C110.949 17.4533 111.035 17.7267 111.209 17.9C111.395 18.06 111.702 18.14 112.129 18.14H113.429V20.5H111.669C109.309 20.5 108.129 19.3533 108.129 17.06V11.72H106.809V9.42H108.129V6.68H110.949V9.42H113.429V11.72H110.949ZM116.863 8.1C116.369 8.1 115.956 7.94667 115.623 7.64C115.303 7.32 115.143 6.92667 115.143 6.46C115.143 5.99333 115.303 5.60667 115.623 5.3C115.956 4.98 116.369 4.82 116.863 4.82C117.356 4.82 117.763 4.98 118.083 5.3C118.416 5.60667 118.583 5.99333 118.583 6.46C118.583 6.92667 118.416 7.32 118.083 7.64C117.763 7.94667 117.356 8.1 116.863 8.1ZM118.243 9.42V20.5H115.443V9.42H118.243ZM120.289 14.96C120.289 13.8133 120.522 12.8133 120.989 11.96C121.456 11.0933 122.102 10.4267 122.929 9.96C123.756 9.48 124.702 9.24 125.769 9.24C127.142 9.24 128.276 9.58667 129.169 10.28C130.076 10.96 130.682 11.92 130.989 13.16H127.969C127.809 12.68 127.536 12.3067 127.149 12.04C126.776 11.76 126.309 11.62 125.749 11.62C124.949 11.62 124.316 11.9133 123.849 12.5C123.382 13.0733 123.149 13.8933 123.149 14.96C123.149 16.0133 123.382 16.8333 123.849 17.42C124.316 17.9933 124.949 18.28 125.749 18.28C126.882 18.28 127.622 17.7733 127.969 16.76H130.989C130.682 17.96 130.076 18.9133 129.169 19.62C128.262 20.3267 127.129 20.68 125.769 20.68C124.702 20.68 123.756 20.4467 122.929 19.98C122.102 19.5 121.456 18.8333 120.989 17.98C120.522 17.1133 120.289 16.1067 120.289 14.96ZM137.28 20.68C136.373 20.68 135.56 20.52 134.84 20.2C134.12 19.8667 133.547 19.42 133.12 18.86C132.707 18.3 132.48 17.68 132.44 17H135.26C135.313 17.4267 135.52 17.78 135.88 18.06C136.253 18.34 136.713 18.48 137.26 18.48C137.793 18.48 138.207 18.3733 138.5 18.16C138.807 17.9467 138.96 17.6733 138.96 17.34C138.96 16.98 138.773 16.7133 138.4 16.54C138.04 16.3533 137.46 16.1533 136.66 15.94C135.833 15.74 135.153 15.5333 134.62 15.32C134.1 15.1067 133.647 14.78 133.26 14.34C132.887 13.9 132.7 13.3067 132.7 12.56C132.7 11.9467 132.873 11.3867 133.22 10.88C133.58 10.3733 134.087 9.97333 134.74 9.68C135.407 9.38667 136.187 9.24 137.08 9.24C138.4 9.24 139.453 9.57333 140.24 10.24C141.027 10.8933 141.46 11.78 141.54 12.9H138.86C138.82 12.46 138.633 12.1133 138.3 11.86C137.98 11.5933 137.547 11.46 137 11.46C136.493 11.46 136.1 11.5533 135.82 11.74C135.553 11.9267 135.42 12.1867 135.42 12.52C135.42 12.8933 135.607 13.18 135.98 13.38C136.353 13.5667 136.933 13.76 137.72 13.96C138.52 14.16 139.18 14.3667 139.7 14.58C140.22 14.7933 140.667 15.1267 141.04 15.58C141.427 16.02 141.627 16.6067 141.64 17.34C141.64 17.98 141.46 18.5533 141.1 19.06C140.753 19.5667 140.247 19.9667 139.58 20.26C138.927 20.54 138.16 20.68 137.28 20.68Z" fill="white"/>
<path d="M41.344 29.924V35.5H40.616V29.924H41.344ZM44.7208 31.036C45.2541 31.036 45.6861 31.1987 46.0168 31.524C46.3474 31.844 46.5128 32.308 46.5128 32.916V35.5H45.7928V33.02C45.7928 32.5827 45.6834 32.2493 45.4648 32.02C45.2461 31.7853 44.9474 31.668 44.5688 31.668C44.1848 31.668 43.8781 31.788 43.6488 32.028C43.4248 32.268 43.3128 32.6173 43.3128 33.076V35.5H42.5848V31.116H43.3128V31.74C43.4568 31.516 43.6514 31.3427 43.8968 31.22C44.1474 31.0973 44.4221 31.036 44.7208 31.036ZM48.5899 31.716V34.3C48.5899 34.5133 48.6353 34.6653 48.7259 34.756C48.8166 34.8413 48.9739 34.884 49.1979 34.884H49.7339V35.5H49.0779C48.6726 35.5 48.3686 35.4067 48.1659 35.22C47.9633 35.0333 47.8619 34.7267 47.8619 34.3V31.716H47.2939V31.116H47.8619V30.012H48.5899V31.116H49.7339V31.716H48.5899ZM54.616 33.14C54.616 33.2787 54.608 33.4253 54.592 33.58H51.088C51.1147 34.012 51.2613 34.3507 51.528 34.596C51.8 34.836 52.128 34.956 52.512 34.956C52.8267 34.956 53.088 34.884 53.296 34.74C53.5093 34.5907 53.6587 34.3933 53.744 34.148H54.528C54.4107 34.5693 54.176 34.9133 53.824 35.18C53.472 35.4413 53.0347 35.572 52.512 35.572C52.096 35.572 51.7227 35.4787 51.392 35.292C51.0667 35.1053 50.8107 34.8413 50.624 34.5C50.4373 34.1533 50.344 33.7533 50.344 33.3C50.344 32.8467 50.4347 32.4493 50.616 32.108C50.7973 31.7667 51.0507 31.5053 51.376 31.324C51.7067 31.1373 52.0853 31.044 52.512 31.044C52.928 31.044 53.296 31.1347 53.616 31.316C53.936 31.4973 54.1813 31.748 54.352 32.068C54.528 32.3827 54.616 32.74 54.616 33.14ZM53.864 32.988C53.864 32.7107 53.8027 32.4733 53.68 32.276C53.5573 32.0733 53.3893 31.9213 53.176 31.82C52.968 31.7133 52.736 31.66 52.48 31.66C52.112 31.66 51.7973 31.7773 51.536 32.012C51.28 32.2467 51.1333 32.572 51.096 32.988H53.864ZM57.3849 31.044C57.7636 31.044 58.0943 31.1267 58.3769 31.292C58.6649 31.4573 58.8783 31.6653 59.0169 31.916V31.116H59.7529V35.596C59.7529 35.996 59.6676 36.3507 59.4969 36.66C59.3263 36.9747 59.0809 37.22 58.7609 37.396C58.4463 37.572 58.0783 37.66 57.6569 37.66C57.0809 37.66 56.6009 37.524 56.2169 37.252C55.8329 36.98 55.6063 36.6093 55.5369 36.14H56.2569C56.3369 36.4067 56.5023 36.62 56.7529 36.78C57.0036 36.9453 57.3049 37.028 57.6569 37.028C58.0569 37.028 58.3823 36.9027 58.6329 36.652C58.8889 36.4013 59.0169 36.0493 59.0169 35.596V34.676C58.8729 34.932 58.6596 35.1453 58.3769 35.316C58.0943 35.4867 57.7636 35.572 57.3849 35.572C56.9956 35.572 56.6409 35.476 56.3209 35.284C56.0063 35.092 55.7583 34.8227 55.5769 34.476C55.3956 34.1293 55.3049 33.7347 55.3049 33.292C55.3049 32.844 55.3956 32.452 55.5769 32.116C55.7583 31.7747 56.0063 31.5107 56.3209 31.324C56.6409 31.1373 56.9956 31.044 57.3849 31.044ZM59.0169 33.3C59.0169 32.9693 58.9503 32.6813 58.8169 32.436C58.6836 32.1907 58.5023 32.004 58.2729 31.876C58.0489 31.7427 57.8009 31.676 57.5289 31.676C57.2569 31.676 57.0089 31.74 56.7849 31.868C56.5609 31.996 56.3823 32.1827 56.2489 32.428C56.1156 32.6733 56.0489 32.9613 56.0489 33.292C56.0489 33.628 56.1156 33.9213 56.2489 34.172C56.3823 34.4173 56.5609 34.6067 56.7849 34.74C57.0089 34.868 57.2569 34.932 57.5289 34.932C57.8009 34.932 58.0489 34.868 58.2729 34.74C58.5023 34.6067 58.6836 34.4173 58.8169 34.172C58.9503 33.9213 59.0169 33.6307 59.0169 33.3ZM61.7112 31.828C61.8392 31.5773 62.0205 31.3827 62.2552 31.244C62.4952 31.1053 62.7859 31.036 63.1272 31.036V31.788H62.9352C62.1192 31.788 61.7112 32.2307 61.7112 33.116V35.5H60.9832V31.116H61.7112V31.828ZM63.6956 33.292C63.6956 32.844 63.7862 32.452 63.9676 32.116C64.1489 31.7747 64.3969 31.5107 64.7116 31.324C65.0316 31.1373 65.3862 31.044 65.7756 31.044C66.1596 31.044 66.4929 31.1267 66.7756 31.292C67.0582 31.4573 67.2689 31.6653 67.4076 31.916V31.116H68.1436V35.5H67.4076V34.684C67.2636 34.94 67.0476 35.1533 66.7596 35.324C66.4769 35.4893 66.1462 35.572 65.7676 35.572C65.3782 35.572 65.0262 35.476 64.7116 35.284C64.3969 35.092 64.1489 34.8227 63.9676 34.476C63.7862 34.1293 63.6956 33.7347 63.6956 33.292ZM67.4076 33.3C67.4076 32.9693 67.3409 32.6813 67.2076 32.436C67.0742 32.1907 66.8929 32.004 66.6636 31.876C66.4396 31.7427 66.1916 31.676 65.9196 31.676C65.6476 31.676 65.3996 31.74 65.1756 31.868C64.9516 31.996 64.7729 32.1827 64.6396 32.428C64.5062 32.6733 64.4396 32.9613 64.4396 33.292C64.4396 33.628 64.5062 33.9213 64.6396 34.172C64.7729 34.4173 64.9516 34.6067 65.1756 34.74C65.3996 34.868 65.6476 34.932 65.9196 34.932C66.1916 34.932 66.4396 34.868 66.6636 34.74C66.8929 34.6067 67.0742 34.4173 67.2076 34.172C67.3409 33.9213 67.4076 33.6307 67.4076 33.3ZM70.2618 31.716V34.3C70.2618 34.5133 70.3071 34.6653 70.3978 34.756C70.4885 34.8413 70.6458 34.884 70.8698 34.884H71.4058V35.5H70.7498C70.3445 35.5 70.0405 35.4067 69.8378 35.22C69.6351 35.0333 69.5338 34.7267 69.5338 34.3V31.716H68.9658V31.116H69.5338V30.012H70.2618V31.116H71.4058V31.716H70.2618ZM76.2879 33.14C76.2879 33.2787 76.2799 33.4253 76.2639 33.58H72.7599C72.7865 34.012 72.9332 34.3507 73.1999 34.596C73.4719 34.836 73.7999 34.956 74.1839 34.956C74.4985 34.956 74.7599 34.884 74.9679 34.74C75.1812 34.5907 75.3305 34.3933 75.4159 34.148H76.1999C76.0825 34.5693 75.8479 34.9133 75.4959 35.18C75.1439 35.4413 74.7065 35.572 74.1839 35.572C73.7679 35.572 73.3945 35.4787 73.0639 35.292C72.7385 35.1053 72.4825 34.8413 72.2959 34.5C72.1092 34.1533 72.0159 33.7533 72.0159 33.3C72.0159 32.8467 72.1065 32.4493 72.2879 32.108C72.4692 31.7667 72.7225 31.5053 73.0479 31.324C73.3785 31.1373 73.7572 31.044 74.1839 31.044C74.5999 31.044 74.9679 31.1347 75.2879 31.316C75.6079 31.4973 75.8532 31.748 76.0239 32.068C76.1999 32.3827 76.2879 32.74 76.2879 33.14ZM75.5359 32.988C75.5359 32.7107 75.4745 32.4733 75.3519 32.276C75.2292 32.0733 75.0612 31.9213 74.8479 31.82C74.6399 31.7133 74.4079 31.66 74.1519 31.66C73.7839 31.66 73.4692 31.7773 73.2079 32.012C72.9519 32.2467 72.8052 32.572 72.7679 32.988H75.5359ZM76.9768 33.292C76.9768 32.844 77.0675 32.452 77.2488 32.116C77.4301 31.7747 77.6781 31.5107 77.9928 31.324C78.3128 31.1373 78.6701 31.044 79.0648 31.044C79.4061 31.044 79.7235 31.124 80.0168 31.284C80.3101 31.4387 80.5341 31.644 80.6888 31.9V29.58H81.4248V35.5H80.6888V34.676C80.5448 34.9373 80.3315 35.1533 80.0488 35.324C79.7661 35.4893 79.4355 35.572 79.0568 35.572C78.6675 35.572 78.3128 35.476 77.9928 35.284C77.6781 35.092 77.4301 34.8227 77.2488 34.476C77.0675 34.1293 76.9768 33.7347 76.9768 33.292ZM80.6888 33.3C80.6888 32.9693 80.6221 32.6813 80.4888 32.436C80.3555 32.1907 80.1741 32.004 79.9448 31.876C79.7208 31.7427 79.4728 31.676 79.2008 31.676C78.9288 31.676 78.6808 31.74 78.4568 31.868C78.2328 31.996 78.0541 32.1827 77.9208 32.428C77.7875 32.6733 77.7208 32.9613 77.7208 33.292C77.7208 33.628 77.7875 33.9213 77.9208 34.172C78.0541 34.4173 78.2328 34.6067 78.4568 34.74C78.6808 34.868 78.9288 34.932 79.2008 34.932C79.4728 34.932 79.7208 34.868 79.9448 34.74C80.1741 34.6067 80.3555 34.4173 80.4888 34.172C80.6221 33.9213 80.6888 33.6307 80.6888 33.3ZM87.5799 32.628C87.7825 32.66 87.9665 32.7427 88.1319 32.876C88.3025 33.0093 88.4359 33.1747 88.5319 33.372C88.6332 33.5693 88.6839 33.78 88.6839 34.004C88.6839 34.2867 88.6119 34.5427 88.4679 34.772C88.3239 34.996 88.1132 35.1747 87.8359 35.308C87.5639 35.436 87.2412 35.5 86.8679 35.5H84.7879V29.924H86.7879C87.1665 29.924 87.4892 29.988 87.7559 30.116C88.0225 30.2387 88.2225 30.4067 88.3559 30.62C88.4892 30.8333 88.5559 31.0733 88.5559 31.34C88.5559 31.6707 88.4652 31.9453 88.2839 32.164C88.1079 32.3773 87.8732 32.532 87.5799 32.628ZM85.5159 32.332H86.7399C87.0812 32.332 87.3452 32.252 87.5319 32.092C87.7185 31.932 87.8119 31.7107 87.8119 31.428C87.8119 31.1453 87.7185 30.924 87.5319 30.764C87.3452 30.604 87.0759 30.524 86.7239 30.524H85.5159V32.332ZM86.8039 34.9C87.1665 34.9 87.4492 34.8147 87.6519 34.644C87.8545 34.4733 87.9559 34.236 87.9559 33.932C87.9559 33.6227 87.8492 33.38 87.6359 33.204C87.4225 33.0227 87.1372 32.932 86.7799 32.932H85.5159V34.9H86.8039ZM93.5821 31.116V35.5H92.8541V34.852C92.7155 35.076 92.5208 35.252 92.2701 35.38C92.0248 35.5027 91.7528 35.564 91.4541 35.564C91.1128 35.564 90.8061 35.4947 90.5341 35.356C90.2621 35.212 90.0461 34.9987 89.8861 34.716C89.7315 34.4333 89.6541 34.0893 89.6541 33.684V31.116H90.3741V33.588C90.3741 34.02 90.4835 34.3533 90.7021 34.588C90.9208 34.8173 91.2195 34.932 91.5981 34.932C91.9875 34.932 92.2941 34.812 92.5181 34.572C92.7421 34.332 92.8541 33.9827 92.8541 33.524V31.116H93.5821ZM96.3633 35.572C96.0273 35.572 95.726 35.516 95.4593 35.404C95.1926 35.2867 94.982 35.1267 94.8273 34.924C94.6726 34.716 94.5873 34.4787 94.5713 34.212H95.3233C95.3446 34.4307 95.446 34.6093 95.6273 34.748C95.814 34.8867 96.0566 34.956 96.3553 34.956C96.6326 34.956 96.8513 34.8947 97.0113 34.772C97.1713 34.6493 97.2513 34.4947 97.2513 34.308C97.2513 34.116 97.166 33.9747 96.9953 33.884C96.8246 33.788 96.5606 33.6947 96.2033 33.604C95.878 33.5187 95.6113 33.4333 95.4033 33.348C95.2006 33.2573 95.0246 33.1267 94.8753 32.956C94.7313 32.78 94.6593 32.5507 94.6593 32.268C94.6593 32.044 94.726 31.8387 94.8593 31.652C94.9926 31.4653 95.182 31.3187 95.4273 31.212C95.6726 31.1 95.9526 31.044 96.2673 31.044C96.7526 31.044 97.1446 31.1667 97.4433 31.412C97.742 31.6573 97.902 31.9933 97.9233 32.42H97.1953C97.1793 32.1907 97.086 32.0067 96.9153 31.868C96.75 31.7293 96.526 31.66 96.2433 31.66C95.982 31.66 95.774 31.716 95.6193 31.828C95.4646 31.94 95.3873 32.0867 95.3873 32.268C95.3873 32.412 95.4326 32.532 95.5233 32.628C95.6193 32.7187 95.7366 32.7933 95.8753 32.852C96.0193 32.9053 96.2166 32.9667 96.4673 33.036C96.782 33.1213 97.038 33.2067 97.2353 33.292C97.4326 33.372 97.6006 33.4947 97.7393 33.66C97.8833 33.8253 97.958 34.0413 97.9633 34.308C97.9633 34.548 97.8966 34.764 97.7633 34.956C97.63 35.148 97.4406 35.3 97.1953 35.412C96.9553 35.5187 96.678 35.572 96.3633 35.572ZM99.367 30.404C99.2283 30.404 99.111 30.356 99.015 30.26C98.919 30.164 98.871 30.0467 98.871 29.908C98.871 29.7693 98.919 29.652 99.015 29.556C99.111 29.46 99.2283 29.412 99.367 29.412C99.5003 29.412 99.6123 29.46 99.703 29.556C99.799 29.652 99.847 29.7693 99.847 29.908C99.847 30.0467 99.799 30.164 99.703 30.26C99.6123 30.356 99.5003 30.404 99.367 30.404ZM99.719 31.116V35.5H98.991V31.116H99.719ZM103.096 31.036C103.629 31.036 104.061 31.1987 104.392 31.524C104.722 31.844 104.888 32.308 104.888 32.916V35.5H104.168V33.02C104.168 32.5827 104.058 32.2493 103.84 32.02C103.621 31.7853 103.322 31.668 102.944 31.668C102.56 31.668 102.253 31.788 102.024 32.028C101.8 32.268 101.688 32.6173 101.688 33.076V35.5H100.96V31.116H101.688V31.74C101.832 31.516 102.026 31.3427 102.272 31.22C102.522 31.0973 102.797 31.036 103.096 31.036ZM110.077 33.14C110.077 33.2787 110.069 33.4253 110.053 33.58H106.549C106.576 34.012 106.722 34.3507 106.989 34.596C107.261 34.836 107.589 34.956 107.973 34.956C108.288 34.956 108.549 34.884 108.757 34.74C108.97 34.5907 109.12 34.3933 109.205 34.148H109.989C109.872 34.5693 109.637 34.9133 109.285 35.18C108.933 35.4413 108.496 35.572 107.973 35.572C107.557 35.572 107.184 35.4787 106.853 35.292C106.528 35.1053 106.272 34.8413 106.085 34.5C105.898 34.1533 105.805 33.7533 105.805 33.3C105.805 32.8467 105.896 32.4493 106.077 32.108C106.258 31.7667 106.512 31.5053 106.837 31.324C107.168 31.1373 107.546 31.044 107.973 31.044C108.389 31.044 108.757 31.1347 109.077 31.316C109.397 31.4973 109.642 31.748 109.813 32.068C109.989 32.3827 110.077 32.74 110.077 33.14ZM109.325 32.988C109.325 32.7107 109.264 32.4733 109.141 32.276C109.018 32.0733 108.85 31.9213 108.637 31.82C108.429 31.7133 108.197 31.66 107.941 31.66C107.573 31.66 107.258 31.7773 106.997 32.012C106.741 32.2467 106.594 32.572 106.557 32.988H109.325ZM112.59 35.572C112.254 35.572 111.953 35.516 111.686 35.404C111.419 35.2867 111.209 35.1267 111.054 34.924C110.899 34.716 110.814 34.4787 110.798 34.212H111.55C111.571 34.4307 111.673 34.6093 111.854 34.748C112.041 34.8867 112.283 34.956 112.582 34.956C112.859 34.956 113.078 34.8947 113.238 34.772C113.398 34.6493 113.478 34.4947 113.478 34.308C113.478 34.116 113.393 33.9747 113.222 33.884C113.051 33.788 112.787 33.6947 112.43 33.604C112.105 33.5187 111.838 33.4333 111.63 33.348C111.427 33.2573 111.251 33.1267 111.102 32.956C110.958 32.78 110.886 32.5507 110.886 32.268C110.886 32.044 110.953 31.8387 111.086 31.652C111.219 31.4653 111.409 31.3187 111.654 31.212C111.899 31.1 112.179 31.044 112.494 31.044C112.979 31.044 113.371 31.1667 113.67 31.412C113.969 31.6573 114.129 31.9933 114.15 32.42H113.422C113.406 32.1907 113.313 32.0067 113.142 31.868C112.977 31.7293 112.753 31.66 112.47 31.66C112.209 31.66 112.001 31.716 111.846 31.828C111.691 31.94 111.614 32.0867 111.614 32.268C111.614 32.412 111.659 32.532 111.75 32.628C111.846 32.7187 111.963 32.7933 112.102 32.852C112.246 32.9053 112.443 32.9667 112.694 33.036C113.009 33.1213 113.265 33.2067 113.462 33.292C113.659 33.372 113.827 33.4947 113.966 33.66C114.11 33.8253 114.185 34.0413 114.19 34.308C114.19 34.548 114.123 34.764 113.99 34.956C113.857 35.148 113.667 35.3 113.422 35.412C113.182 35.5187 112.905 35.572 112.59 35.572ZM116.77 35.572C116.434 35.572 116.132 35.516 115.866 35.404C115.599 35.2867 115.388 35.1267 115.234 34.924C115.079 34.716 114.994 34.4787 114.978 34.212H115.73C115.751 34.4307 115.852 34.6093 116.034 34.748C116.22 34.8867 116.463 34.956 116.762 34.956C117.039 34.956 117.258 34.8947 117.418 34.772C117.578 34.6493 117.658 34.4947 117.658 34.308C117.658 34.116 117.572 33.9747 117.402 33.884C117.231 33.788 116.967 33.6947 116.61 33.604C116.284 33.5187 116.018 33.4333 115.81 33.348C115.607 33.2573 115.431 33.1267 115.282 32.956C115.138 32.78 115.066 32.5507 115.066 32.268C115.066 32.044 115.132 31.8387 115.266 31.652C115.399 31.4653 115.588 31.3187 115.834 31.212C116.079 31.1 116.359 31.044 116.674 31.044C117.159 31.044 117.551 31.1667 117.85 31.412C118.148 31.6573 118.308 31.9933 118.33 32.42H117.602C117.586 32.1907 117.492 32.0067 117.322 31.868C117.156 31.7293 116.932 31.66 116.65 31.66C116.388 31.66 116.18 31.716 116.026 31.828C115.871 31.94 115.794 32.0867 115.794 32.268C115.794 32.412 115.839 32.532 115.93 32.628C116.026 32.7187 116.143 32.7933 116.282 32.852C116.426 32.9053 116.623 32.9667 116.874 33.036C117.188 33.1213 117.444 33.2067 117.642 33.292C117.839 33.372 118.007 33.4947 118.146 33.66C118.29 33.8253 118.364 34.0413 118.37 34.308C118.37 34.548 118.303 34.764 118.17 34.956C118.036 35.148 117.847 35.3 117.602 35.412C117.362 35.5187 117.084 35.572 116.77 35.572ZM125.258 31.556C125.258 32.02 125.098 32.4067 124.778 32.716C124.463 33.02 123.981 33.172 123.33 33.172H122.258V35.5H121.53V29.924H123.33C123.959 29.924 124.437 30.076 124.762 30.38C125.093 30.684 125.258 31.076 125.258 31.556ZM123.33 32.572C123.735 32.572 124.034 32.484 124.226 32.308C124.418 32.132 124.514 31.8813 124.514 31.556C124.514 30.868 124.119 30.524 123.33 30.524H122.258V32.572H123.33ZM126.891 29.58V35.5H126.163V29.58H126.891ZM127.86 33.292C127.86 32.844 127.95 32.452 128.132 32.116C128.313 31.7747 128.561 31.5107 128.876 31.324C129.196 31.1373 129.55 31.044 129.94 31.044C130.324 31.044 130.657 31.1267 130.94 31.292C131.222 31.4573 131.433 31.6653 131.572 31.916V31.116H132.308V35.5H131.572V34.684C131.428 34.94 131.212 35.1533 130.924 35.324C130.641 35.4893 130.31 35.572 129.932 35.572C129.542 35.572 129.19 35.476 128.876 35.284C128.561 35.092 128.313 34.8227 128.132 34.476C127.95 34.1293 127.86 33.7347 127.86 33.292ZM131.572 33.3C131.572 32.9693 131.505 32.6813 131.372 32.436C131.238 32.1907 131.057 32.004 130.828 31.876C130.604 31.7427 130.356 31.676 130.084 31.676C129.812 31.676 129.564 31.74 129.34 31.868C129.116 31.996 128.937 32.1827 128.804 32.428C128.67 32.6733 128.604 32.9613 128.604 33.292C128.604 33.628 128.67 33.9213 128.804 34.172C128.937 34.4173 129.116 34.6067 129.34 34.74C129.564 34.868 129.812 34.932 130.084 34.932C130.356 34.932 130.604 34.868 130.828 34.74C131.057 34.6067 131.238 34.4173 131.372 34.172C131.505 33.9213 131.572 33.6307 131.572 33.3ZM135.674 31.036C136.207 31.036 136.639 31.1987 136.97 31.524C137.301 31.844 137.466 32.308 137.466 32.916V35.5H136.746V33.02C136.746 32.5827 136.637 32.2493 136.418 32.02C136.199 31.7853 135.901 31.668 135.522 31.668C135.138 31.668 134.831 31.788 134.602 32.028C134.378 32.268 134.266 32.6173 134.266 33.076V35.5H133.538V31.116H134.266V31.74C134.41 31.516 134.605 31.3427 134.85 31.22C135.101 31.0973 135.375 31.036 135.674 31.036ZM140.791 31.036C141.324 31.036 141.756 31.1987 142.087 31.524C142.418 31.844 142.583 32.308 142.583 32.916V35.5H141.863V33.02C141.863 32.5827 141.754 32.2493 141.535 32.02C141.316 31.7853 141.018 31.668 140.639 31.668C140.255 31.668 139.948 31.788 139.719 32.028C139.495 32.268 139.383 32.6173 139.383 33.076V35.5H138.655V31.116H139.383V31.74C139.527 31.516 139.722 31.3427 139.967 31.22C140.218 31.0973 140.492 31.036 140.791 31.036ZM147.772 33.14C147.772 33.2787 147.764 33.4253 147.748 33.58H144.244C144.271 34.012 144.418 34.3507 144.684 34.596C144.956 34.836 145.284 34.956 145.668 34.956C145.983 34.956 146.244 34.884 146.452 34.74C146.666 34.5907 146.815 34.3933 146.9 34.148H147.684C147.567 34.5693 147.332 34.9133 146.98 35.18C146.628 35.4413 146.191 35.572 145.668 35.572C145.252 35.572 144.879 35.4787 144.548 35.292C144.223 35.1053 143.967 34.8413 143.78 34.5C143.594 34.1533 143.5 33.7533 143.5 33.3C143.5 32.8467 143.591 32.4493 143.772 32.108C143.954 31.7667 144.207 31.5053 144.532 31.324C144.863 31.1373 145.242 31.044 145.668 31.044C146.084 31.044 146.452 31.1347 146.772 31.316C147.092 31.4973 147.338 31.748 147.508 32.068C147.684 32.3827 147.772 32.74 147.772 33.14ZM147.02 32.988C147.02 32.7107 146.959 32.4733 146.836 32.276C146.714 32.0733 146.546 31.9213 146.332 31.82C146.124 31.7133 145.892 31.66 145.636 31.66C145.268 31.66 144.954 31.7773 144.692 32.012C144.436 32.2467 144.29 32.572 144.252 32.988H147.02ZM149.461 31.828C149.589 31.5773 149.771 31.3827 150.005 31.244C150.245 31.1053 150.536 31.036 150.877 31.036V31.788H150.685C149.869 31.788 149.461 32.2307 149.461 33.116V35.5H148.733V31.116H149.461V31.828Z" fill="#E1E1E2"/>
<defs>
<clipPath id="clip0_2607_2142">
<rect width="35" height="35" fill="white" transform="translate(0 2)"/>
</clipPath>
</defs>
</svg>
