<svg width="16" height="17" viewBox="0 0 16 17" fill="none" xmlns="http://www.w3.org/2000/svg">
<path d="M15 14.5C15 14.5 16 14.5 16 13.5C16 12.5 15 9.5 11 9.5C7 9.5 6 12.5 6 13.5C6 14.5 7 14.5 7 14.5H15ZM7.022 13.5L7 13.496C7.001 13.232 7.167 12.466 7.76 11.776C8.312 11.129 9.282 10.5 11 10.5C12.717 10.5 13.687 11.13 14.24 11.776C14.833 12.466 14.998 13.233 15 13.496L14.992 13.498L14.978 13.5H7.022ZM11 7.5C11.5304 7.5 12.0391 7.28929 12.4142 6.91421C12.7893 6.53914 13 6.03043 13 5.5C13 4.96957 12.7893 4.46086 12.4142 4.08579C12.0391 3.71071 11.5304 3.5 11 3.5C10.4696 3.5 9.96086 3.71071 9.58579 4.08579C9.21071 4.46086 9 4.96957 9 5.5C9 6.03043 9.21071 6.53914 9.58579 6.91421C9.96086 7.28929 10.4696 7.5 11 7.5ZM14 5.5C14 5.89397 13.9224 6.28407 13.7716 6.64805C13.6209 7.01203 13.3999 7.34274 13.1213 7.62132C12.8427 7.8999 12.512 8.12087 12.1481 8.27164C11.7841 8.4224 11.394 8.5 11 8.5C10.606 8.5 10.2159 8.4224 9.85195 8.27164C9.48797 8.12087 9.15726 7.8999 8.87868 7.62132C8.6001 7.34274 8.37913 7.01203 8.22836 6.64805C8.0776 6.28407 8 5.89397 8 5.5C8 4.70435 8.31607 3.94129 8.87868 3.37868C9.44129 2.81607 10.2044 2.5 11 2.5C11.7956 2.5 12.5587 2.81607 13.1213 3.37868C13.6839 3.94129 14 4.70435 14 5.5ZM6.936 9.78C6.53576 9.65491 6.1235 9.57213 5.706 9.533C5.47137 9.51012 5.23574 9.4991 5 9.5C1 9.5 0 12.5 0 13.5C0 14.1667 0.333333 14.5 1 14.5H5.216C5.06782 14.1878 4.9939 13.8455 5 13.5C5 12.49 5.377 11.458 6.09 10.596C6.333 10.302 6.616 10.027 6.936 9.78ZM4.92 10.5C4.32852 11.3894 4.00884 12.4319 4 13.5H1C1 13.24 1.164 12.47 1.76 11.776C2.305 11.14 3.252 10.52 4.92 10.501V10.5ZM1.5 6C1.5 5.20435 1.81607 4.44129 2.37868 3.87868C2.94129 3.31607 3.70435 3 4.5 3C5.29565 3 6.05871 3.31607 6.62132 3.87868C7.18393 4.44129 7.5 5.20435 7.5 6C7.5 6.79565 7.18393 7.55871 6.62132 8.12132C6.05871 8.68393 5.29565 9 4.5 9C3.70435 9 2.94129 8.68393 2.37868 8.12132C1.81607 7.55871 1.5 6.79565 1.5 6ZM4.5 4C3.96957 4 3.46086 4.21071 3.08579 4.58579C2.71071 4.96086 2.5 5.46957 2.5 6C2.5 6.53043 2.71071 7.03914 3.08579 7.41421C3.46086 7.78929 3.96957 8 4.5 8C5.03043 8 5.53914 7.78929 5.91421 7.41421C6.28929 7.03914 6.5 6.53043 6.5 6C6.5 5.46957 6.28929 4.96086 5.91421 4.58579C5.53914 4.21071 5.03043 4 4.5 4Z" fill="#222222"/>
</svg>
