<svg width="16" height="17" viewBox="0 0 16 17" fill="none" xmlns="http://www.w3.org/2000/svg">
<g clip-path="url(#clip0_262_3696)">
<path d="M8 15.5C6.14348 15.5 4.36301 14.7625 3.05025 13.4497C1.7375 12.137 1 10.3565 1 8.5C1 6.64348 1.7375 4.86301 3.05025 3.55025C4.36301 2.2375 6.14348 1.5 8 1.5C9.85652 1.5 11.637 2.2375 12.9497 3.55025C14.2625 4.86301 15 6.64348 15 8.5C15 10.3565 14.2625 12.137 12.9497 13.4497C11.637 14.7625 9.85652 15.5 8 15.5ZM8 16.5C10.1217 16.5 12.1566 15.6571 13.6569 14.1569C15.1571 12.6566 16 10.6217 16 8.5C16 6.37827 15.1571 4.34344 13.6569 2.84315C12.1566 1.34285 10.1217 0.5 8 0.5C5.87827 0.5 3.84344 1.34285 2.34315 2.84315C0.842855 4.34344 0 6.37827 0 8.5C0 10.6217 0.842855 12.6566 2.34315 14.1569C3.84344 15.6571 5.87827 16.5 8 16.5Z" fill="#222222"/>
<path d="M5.255 6.286C5.25363 6.31829 5.25889 6.35053 5.27044 6.38072C5.28198 6.41091 5.29959 6.43841 5.32216 6.46155C5.34473 6.48468 5.3718 6.50296 5.4017 6.51524C5.43159 6.52753 5.46369 6.53357 5.496 6.533H6.321C6.459 6.533 6.569 6.42 6.587 6.283C6.677 5.627 7.127 5.149 7.929 5.149C8.615 5.149 9.243 5.492 9.243 6.317C9.243 6.952 8.869 7.244 8.278 7.688C7.605 8.177 7.072 8.748 7.11 9.675L7.113 9.892C7.11405 9.95761 7.14086 10.0202 7.18763 10.0662C7.2344 10.1122 7.29739 10.138 7.363 10.138H8.174C8.24031 10.138 8.3039 10.1117 8.35078 10.0648C8.39766 10.0179 8.424 9.9543 8.424 9.888V9.783C8.424 9.065 8.697 8.856 9.434 8.297C10.043 7.834 10.678 7.32 10.678 6.241C10.678 4.73 9.402 4 8.005 4C6.738 4 5.35 4.59 5.255 6.286ZM6.812 12.049C6.812 12.582 7.237 12.976 7.822 12.976C8.431 12.976 8.85 12.582 8.85 12.049C8.85 11.497 8.43 11.109 7.821 11.109C7.237 11.109 6.812 11.497 6.812 12.049Z" fill="#222222"/>
</g>
<defs>
<clipPath id="clip0_262_3696">
<rect width="16" height="16" fill="white" transform="translate(0 0.5)"/>
</clipPath>
</defs>
</svg>
