<svg width="16" height="17" viewBox="0 0 16 17" fill="none" xmlns="http://www.w3.org/2000/svg">
<path d="M1.92 1.006C1.99826 0.993253 2.07843 0.9993 2.15389 1.02364C2.22935 1.04798 2.29794 1.08992 2.354 1.146L3 1.793L3.646 1.146C3.69245 1.09944 3.74762 1.0625 3.80837 1.03729C3.86911 1.01208 3.93423 0.999107 4 0.999107C4.06577 0.999107 4.13089 1.01208 4.19163 1.03729C4.25238 1.0625 4.30755 1.09944 4.354 1.146L5 1.793L5.646 1.146C5.69245 1.09944 5.74762 1.0625 5.80837 1.03729C5.86911 1.01208 5.93423 0.999107 6 0.999107C6.06577 0.999107 6.13089 1.01208 6.19163 1.03729C6.25238 1.0625 6.30755 1.09944 6.354 1.146L7 1.793L7.646 1.146C7.69245 1.09944 7.74762 1.0625 7.80837 1.03729C7.86911 1.01208 7.93423 0.999107 8 0.999107C8.06577 0.999107 8.13089 1.01208 8.19163 1.03729C8.25238 1.0625 8.30755 1.09944 8.354 1.146L9 1.793L9.646 1.146C9.69245 1.09944 9.74762 1.0625 9.80837 1.03729C9.86911 1.01208 9.93423 0.999107 10 0.999107C10.0658 0.999107 10.1309 1.01208 10.1916 1.03729C10.2524 1.0625 10.3076 1.09944 10.354 1.146L11 1.793L11.646 1.146C11.6924 1.09944 11.7476 1.0625 11.8084 1.03729C11.8691 1.01208 11.9342 0.999107 12 0.999107C12.0658 0.999107 12.1309 1.01208 12.1916 1.03729C12.2524 1.0625 12.3076 1.09944 12.354 1.146L13 1.793L13.646 1.146C13.702 1.08993 13.7706 1.04799 13.846 1.02362C13.9214 0.999261 14.0016 0.993177 14.0798 1.00587C14.158 1.01857 14.2321 1.04969 14.296 1.09665C14.3598 1.14362 14.4116 1.20509 14.447 1.276L14.947 2.276C14.9818 2.34553 15 2.42223 15 2.5V14.5C15 14.5778 14.9818 14.6545 14.947 14.724L14.447 15.724C14.4115 15.7947 14.3598 15.856 14.296 15.9029C14.2323 15.9497 14.1583 15.9808 14.0802 15.9934C14.0021 16.0061 13.9221 16.0001 13.8468 15.9759C13.7715 15.9516 13.703 15.9099 13.647 15.854L13 15.207L12.354 15.854C12.3076 15.9006 12.2524 15.9375 12.1916 15.9627C12.1309 15.9879 12.0658 16.0009 12 16.0009C11.9342 16.0009 11.8691 15.9879 11.8084 15.9627C11.7476 15.9375 11.6924 15.9006 11.646 15.854L11 15.207L10.354 15.854C10.3076 15.9006 10.2524 15.9375 10.1916 15.9627C10.1309 15.9879 10.0658 16.0009 10 16.0009C9.93423 16.0009 9.86911 15.9879 9.80837 15.9627C9.74762 15.9375 9.69245 15.9006 9.646 15.854L9 15.207L8.354 15.854C8.30755 15.9006 8.25238 15.9375 8.19163 15.9627C8.13089 15.9879 8.06577 16.0009 8 16.0009C7.93423 16.0009 7.86911 15.9879 7.80837 15.9627C7.74762 15.9375 7.69245 15.9006 7.646 15.854L7 15.207L6.354 15.854C6.30755 15.9006 6.25238 15.9375 6.19163 15.9627C6.13089 15.9879 6.06577 16.0009 6 16.0009C5.93423 16.0009 5.86911 15.9879 5.80837 15.9627C5.74762 15.9375 5.69245 15.9006 5.646 15.854L5 15.207L4.354 15.854C4.30755 15.9006 4.25238 15.9375 4.19163 15.9627C4.13089 15.9879 4.06577 16.0009 4 16.0009C3.93423 16.0009 3.86911 15.9879 3.80837 15.9627C3.74762 15.9375 3.69245 15.9006 3.646 15.854L3 15.207L2.354 15.854C2.29798 15.9101 2.22943 15.952 2.154 15.9764C2.07858 16.0007 1.99845 16.0068 1.92021 15.9941C1.84197 15.9814 1.76787 15.9503 1.70403 15.9033C1.64018 15.8564 1.58842 15.7949 1.553 15.724L1.053 14.724C1.01815 14.6545 1.00001 14.5778 1 14.5V2.5C1.00001 2.42223 1.01815 2.34553 1.053 2.276L1.553 1.276C1.58841 1.20514 1.64015 1.14371 1.70396 1.09677C1.76777 1.04983 1.84181 1.01872 1.92 1.006ZM2.137 2.344L2 2.618V14.382L2.137 14.656L2.647 14.146C2.74076 14.0523 2.86792 13.9996 3.0005 13.9996C3.13308 13.9996 3.26024 14.0523 3.354 14.146L4 14.793L4.646 14.147C4.69245 14.1004 4.74762 14.0635 4.80837 14.0383C4.86911 14.0131 4.93423 14.0001 5 14.0001C5.06577 14.0001 5.13089 14.0131 5.19163 14.0383C5.25238 14.0635 5.30755 14.1004 5.354 14.147L6 14.793L6.646 14.147C6.69245 14.1004 6.74762 14.0635 6.80837 14.0383C6.86911 14.0131 6.93423 14.0001 7 14.0001C7.06577 14.0001 7.13089 14.0131 7.19163 14.0383C7.25238 14.0635 7.30755 14.1004 7.354 14.147L8 14.793L8.646 14.147C8.69245 14.1004 8.74762 14.0635 8.80837 14.0383C8.86911 14.0131 8.93423 14.0001 9 14.0001C9.06577 14.0001 9.13089 14.0131 9.19163 14.0383C9.25238 14.0635 9.30755 14.1004 9.354 14.147L10 14.793L10.646 14.147C10.6924 14.1004 10.7476 14.0635 10.8084 14.0383C10.8691 14.0131 10.9342 14.0001 11 14.0001C11.0658 14.0001 11.1309 14.0131 11.1916 14.0383C11.2524 14.0635 11.3076 14.1004 11.354 14.147L12 14.793L12.646 14.147C12.6924 14.1004 12.7476 14.0635 12.8084 14.0383C12.8691 14.0131 12.9342 14.0001 13 14.0001C13.0658 14.0001 13.1309 14.0131 13.1916 14.0383C13.2524 14.0635 13.3076 14.1004 13.354 14.147L13.863 14.656L14 14.382V2.618L13.863 2.344L13.353 2.854C13.2592 2.94774 13.1321 3.00039 12.9995 3.00039C12.8669 3.00039 12.7398 2.94774 12.646 2.854L12 2.207L11.354 2.854C11.3076 2.90056 11.2524 2.93751 11.1916 2.96271C11.1309 2.98792 11.0658 3.0009 11 3.0009C10.9342 3.0009 10.8691 2.98792 10.8084 2.96271C10.7476 2.93751 10.6924 2.90056 10.646 2.854L10 2.207L9.354 2.854C9.30755 2.90056 9.25238 2.93751 9.19163 2.96271C9.13089 2.98792 9.06577 3.0009 9 3.0009C8.93423 3.0009 8.86911 2.98792 8.80837 2.96271C8.74762 2.93751 8.69245 2.90056 8.646 2.854L8 2.207L7.354 2.854C7.30755 2.90056 7.25238 2.93751 7.19163 2.96271C7.13089 2.98792 7.06577 3.0009 7 3.0009C6.93423 3.0009 6.86911 2.98792 6.80837 2.96271C6.74762 2.93751 6.69245 2.90056 6.646 2.854L6 2.207L5.354 2.854C5.30755 2.90056 5.25238 2.93751 5.19163 2.96271C5.13089 2.98792 5.06577 3.0009 5 3.0009C4.93423 3.0009 4.86911 2.98792 4.80837 2.96271C4.74762 2.93751 4.69245 2.90056 4.646 2.854L4 2.207L3.354 2.854C3.30755 2.90056 3.25238 2.93751 3.19163 2.96271C3.13089 2.98792 3.06577 3.0009 3 3.0009C2.93423 3.0009 2.86911 2.98792 2.80837 2.96271C2.74762 2.93751 2.69245 2.90056 2.646 2.854L2.137 2.344Z" fill="#222222"/>
<path d="M3 5C3 4.86739 3.05268 4.74021 3.14645 4.64645C3.24021 4.55268 3.36739 4.5 3.5 4.5H9.5C9.63261 4.5 9.75979 4.55268 9.85355 4.64645C9.94732 4.74021 10 4.86739 10 5C10 5.13261 9.94732 5.25979 9.85355 5.35355C9.75979 5.44732 9.63261 5.5 9.5 5.5H3.5C3.36739 5.5 3.24021 5.44732 3.14645 5.35355C3.05268 5.25979 3 5.13261 3 5ZM3 7C3 6.86739 3.05268 6.74021 3.14645 6.64645C3.24021 6.55268 3.36739 6.5 3.5 6.5H9.5C9.63261 6.5 9.75979 6.55268 9.85355 6.64645C9.94732 6.74021 10 6.86739 10 7C10 7.13261 9.94732 7.25979 9.85355 7.35355C9.75979 7.44732 9.63261 7.5 9.5 7.5H3.5C3.36739 7.5 3.24021 7.44732 3.14645 7.35355C3.05268 7.25979 3 7.13261 3 7ZM3 9C3 8.86739 3.05268 8.74021 3.14645 8.64645C3.24021 8.55268 3.36739 8.5 3.5 8.5H9.5C9.63261 8.5 9.75979 8.55268 9.85355 8.64645C9.94732 8.74021 10 8.86739 10 9C10 9.13261 9.94732 9.25979 9.85355 9.35355C9.75979 9.44732 9.63261 9.5 9.5 9.5H3.5C3.36739 9.5 3.24021 9.44732 3.14645 9.35355C3.05268 9.25979 3 9.13261 3 9ZM3 11C3 10.8674 3.05268 10.7402 3.14645 10.6464C3.24021 10.5527 3.36739 10.5 3.5 10.5H9.5C9.63261 10.5 9.75979 10.5527 9.85355 10.6464C9.94732 10.7402 10 10.8674 10 11C10 11.1326 9.94732 11.2598 9.85355 11.3536C9.75979 11.4473 9.63261 11.5 9.5 11.5H3.5C3.36739 11.5 3.24021 11.4473 3.14645 11.3536C3.05268 11.2598 3 11.1326 3 11ZM11 5C11 4.86739 11.0527 4.74021 11.1464 4.64645C11.2402 4.55268 11.3674 4.5 11.5 4.5H12.5C12.6326 4.5 12.7598 4.55268 12.8536 4.64645C12.9473 4.74021 13 4.86739 13 5C13 5.13261 12.9473 5.25979 12.8536 5.35355C12.7598 5.44732 12.6326 5.5 12.5 5.5H11.5C11.3674 5.5 11.2402 5.44732 11.1464 5.35355C11.0527 5.25979 11 5.13261 11 5ZM11 7C11 6.86739 11.0527 6.74021 11.1464 6.64645C11.2402 6.55268 11.3674 6.5 11.5 6.5H12.5C12.6326 6.5 12.7598 6.55268 12.8536 6.64645C12.9473 6.74021 13 6.86739 13 7C13 7.13261 12.9473 7.25979 12.8536 7.35355C12.7598 7.44732 12.6326 7.5 12.5 7.5H11.5C11.3674 7.5 11.2402 7.44732 11.1464 7.35355C11.0527 7.25979 11 7.13261 11 7ZM11 9C11 8.86739 11.0527 8.74021 11.1464 8.64645C11.2402 8.55268 11.3674 8.5 11.5 8.5H12.5C12.6326 8.5 12.7598 8.55268 12.8536 8.64645C12.9473 8.74021 13 8.86739 13 9C13 9.13261 12.9473 9.25979 12.8536 9.35355C12.7598 9.44732 12.6326 9.5 12.5 9.5H11.5C11.3674 9.5 11.2402 9.44732 11.1464 9.35355C11.0527 9.25979 11 9.13261 11 9ZM11 11C11 10.8674 11.0527 10.7402 11.1464 10.6464C11.2402 10.5527 11.3674 10.5 11.5 10.5H12.5C12.6326 10.5 12.7598 10.5527 12.8536 10.6464C12.9473 10.7402 13 10.8674 13 11C13 11.1326 12.9473 11.2598 12.8536 11.3536C12.7598 11.4473 12.6326 11.5 12.5 11.5H11.5C11.3674 11.5 11.2402 11.4473 11.1464 11.3536C11.0527 11.2598 11 11.1326 11 11Z" fill="#222222"/>
</svg>
