<svg width="16" height="17" viewBox="0 0 16 17" fill="none" xmlns="http://www.w3.org/2000/svg">
<g clip-path="url(#clip0_262_3682)">
<path d="M8.5 6.10001C8.5 5.9674 8.44732 5.84022 8.35355 5.74645C8.25979 5.65268 8.13261 5.60001 8 5.60001C7.86739 5.60001 7.74021 5.65268 7.64645 5.74645C7.55268 5.84022 7.5 5.9674 7.5 6.10001V9.00001H4.5C4.36739 9.00001 4.24021 9.05268 4.14645 9.14645C4.05268 9.24022 4 9.3674 4 9.50001C4 9.63261 4.05268 9.75979 4.14645 9.85356C4.24021 9.94733 4.36739 10 4.5 10H8C8.13261 10 8.25979 9.94733 8.35355 9.85356C8.44732 9.75979 8.5 9.63261 8.5 9.50001V6.10001Z" fill="#222222"/>
<path d="M6.50001 1.5C6.50001 1.36739 6.55269 1.24021 6.64645 1.14645C6.74022 1.05268 6.8674 1 7.00001 1H9.00001C9.13262 1 9.25979 1.05268 9.35356 1.14645C9.44733 1.24021 9.50001 1.36739 9.50001 1.5C9.50001 1.63261 9.44733 1.75979 9.35356 1.85355C9.25979 1.94732 9.13262 2 9.00001 2V2.57C10.36 2.766 11.594 3.35 12.584 4.21L12.596 4.197L12.95 3.843L12.596 3.49C12.5021 3.39625 12.4493 3.26904 12.4492 3.13635C12.4491 3.00367 12.5018 2.87639 12.5955 2.7825C12.6893 2.68861 12.8165 2.63582 12.9492 2.63572C13.0818 2.63563 13.2091 2.68825 13.303 2.782L14.717 4.197C14.7648 4.24312 14.8029 4.2983 14.8291 4.3593C14.8553 4.4203 14.8691 4.48591 14.8696 4.5523C14.8702 4.61869 14.8576 4.68453 14.8324 4.74598C14.8073 4.80743 14.7702 4.86325 14.7232 4.9102C14.6763 4.95714 14.6204 4.99427 14.559 5.01941C14.4975 5.04455 14.4317 5.0572 14.3653 5.05663C14.2989 5.05605 14.2333 5.04226 14.1723 5.01605C14.1113 4.98985 14.0561 4.95175 14.01 4.904L13.657 4.55L13.303 4.904L13.29 4.916C14.3082 6.09135 14.906 7.57228 14.9891 9.12509C15.0723 10.6779 14.636 12.2142 13.7491 13.4915C12.8623 14.7689 11.5753 15.7146 10.0914 16.1793C8.60741 16.6441 7.01094 16.6015 5.55387 16.0583C4.09679 15.5151 2.86208 14.5022 2.04456 13.1794C1.22704 11.8566 0.873265 10.2992 1.03905 8.75305C1.20483 7.20687 1.88074 5.75992 2.96012 4.64051C4.0395 3.52109 5.46089 2.79296 7.00001 2.571V2C6.8674 2 6.74022 1.94732 6.64645 1.85355C6.55269 1.75979 6.50001 1.63261 6.50001 1.5ZM8.00001 3.5C7.21208 3.50007 6.43187 3.65533 5.70395 3.95691C4.97602 4.2585 4.31462 4.70051 3.75751 5.25771C2.63239 6.38303 2.00038 7.9092 2.00051 9.5005C2.00064 11.0918 2.63291 12.6179 3.75822 13.743C4.88353 14.8681 6.40971 15.5001 8.00101 15.5C9.59231 15.4999 11.1184 14.8676 12.2435 13.7423C13.3686 12.617 14.0006 11.0908 14.0005 9.4995C14.0004 7.9082 13.3681 6.38213 12.2428 5.25701C11.1175 4.13188 9.59131 3.49987 8.00001 3.5Z" fill="#222222"/>
</g>
<defs>
<clipPath id="clip0_262_3682">
<rect width="16" height="16" fill="white" transform="translate(0 0.5)"/>
</clipPath>
</defs>
</svg>
