<svg width="100" height="28" viewBox="0 0 100 28" fill="none" xmlns="http://www.w3.org/2000/svg">
<g clip-path="url(#clip0_249_34)">
<path fill-rule="evenodd" clip-rule="evenodd" d="M86.3351 0.279694C81.0336 0.279694 76.4581 3.38561 74.2282 7.9022C71.9983 3.38561 67.4218 0.279694 62.1213 0.279694C56.7669 0.279694 52.1515 3.45066 49.9476 8.04245C47.7446 3.45066 43.1282 0.279694 37.7748 0.279694C32.4733 0.279694 27.8959 3.38764 25.666 7.90525C23.437 3.38764 18.8596 0.279694 13.5571 0.279694C6.07053 0.279694 0.00012207 6.46612 0.00012207 14.0968C0.00012207 21.7274 6.07053 27.9138 13.5571 27.9138C18.8596 27.9138 23.437 24.8069 25.666 20.2883C27.8959 24.8069 32.4733 27.9138 37.7748 27.9138C43.1282 27.9138 47.7446 24.7439 49.9476 20.1511C52.1515 24.7439 56.7669 27.9138 62.1213 27.9138C67.4218 27.9138 71.9983 24.8079 74.2282 20.2913C76.4581 24.8079 81.0336 27.9138 86.3351 27.9138C93.8236 27.9138 99.893 21.7274 99.893 14.0968C99.893 6.46612 93.8236 0.279694 86.3351 0.279694Z" fill="#008579"/>
<path fill-rule="evenodd" clip-rule="evenodd" d="M62.1747 18.6353C59.6606 18.6312 57.6301 16.5599 57.6252 14.0008C57.6301 11.4417 59.6606 9.37243 62.1747 9.36633C64.6829 9.37243 66.7153 11.4417 66.7193 14.0008C66.7153 16.5599 64.6829 18.6312 62.1747 18.6353ZM62.1737 5.95755C57.8136 5.95755 54.2793 9.55842 54.2793 14.0008C54.2793 18.4432 57.8136 22.0441 62.1737 22.0441C66.5288 22.0441 70.0661 18.4432 70.0661 14.0008C70.0661 9.55842 66.5288 5.95755 62.1737 5.95755Z" fill="white"/>
<path fill-rule="evenodd" clip-rule="evenodd" d="M80.1391 22.1011H79.9995V7.78501C80.0025 6.62436 80.7644 5.93732 81.7507 5.93529C82.2234 5.94443 82.8916 6.27373 83.2137 6.71482L89.8177 15.6931V7.78501C89.8187 6.62436 90.5806 5.93732 91.5679 5.93529C92.5532 5.93732 93.3141 6.62436 93.3161 7.78501V20.2178C93.3141 21.3785 92.5532 22.0655 91.5679 22.0665C91.0932 22.0594 90.445 21.7251 90.1039 21.289L83.5009 12.4164V22.1011H80.1391Z" fill="white"/>
<path fill-rule="evenodd" clip-rule="evenodd" d="M43.1806 17.8874C42.8625 17.3904 42.329 17.1068 41.7835 17.1068C41.4873 17.1048 41.1841 17.1902 40.9168 17.368L41.0983 17.6516L40.8759 17.3995C40.0672 18.1384 38.9951 18.5886 37.8273 18.5886C35.3142 18.5846 33.2837 16.5143 33.2787 13.9552C33.2837 11.3971 35.3142 9.32578 37.8273 9.3207C39.5107 9.31968 41.0425 10.2303 41.8254 11.6024L42.0448 11.9906L44.3734 9.54327L44.2078 9.31358C42.7748 7.30835 40.4491 6.00237 37.8273 6.00237C33.4682 6.00237 29.9329 9.60425 29.9329 14.0466C29.9329 18.489 33.4682 22.0889 37.8273 22.0889C39.7071 22.0889 41.4424 21.4201 42.8027 20.3001C43.2564 19.9993 43.5217 19.4627 43.5217 18.9159C43.5217 18.6049 43.4369 18.2888 43.2564 18.0083L43.1806 17.8874Z" fill="white"/>
<path fill-rule="evenodd" clip-rule="evenodd" d="M13.5283 5.69289H13.3877C12.4812 5.69289 11.7472 6.44192 11.7472 7.36577V22.2978H15.1688V7.36577C15.1688 6.44192 14.4338 5.69289 13.5283 5.69289Z" fill="white"/>
</g>
<defs>
<clipPath id="clip0_249_34">
<rect width="100" height="28" fill="white"/>
</clipPath>
</defs>
</svg>
