<svg width="16" height="17" viewBox="0 0 16 17" fill="none" xmlns="http://www.w3.org/2000/svg">
<g clip-path="url(#clip0_262_3713)">
<path d="M2.18391e-09 4C2.18391e-09 3.60218 0.158035 3.22064 0.43934 2.93934C0.720644 2.65804 1.10218 2.5 1.5 2.5H10.5C10.8978 2.5 11.2794 2.65804 11.5607 2.93934C11.842 3.22064 12 3.60218 12 4V5.5H13.02C13.2447 5.5002 13.4666 5.5509 13.6691 5.64835C13.8716 5.74579 14.0496 5.8875 14.19 6.063L15.671 7.913C15.8841 8.17919 16.0001 8.51003 16 8.851V11C16 11.3978 15.842 11.7794 15.5607 12.0607C15.2794 12.342 14.8978 12.5 14.5 12.5H14C14 13.0304 13.7893 13.5391 13.4142 13.9142C13.0391 14.2893 12.5304 14.5 12 14.5C11.4696 14.5 10.9609 14.2893 10.5858 13.9142C10.2107 13.5391 10 13.0304 10 12.5H5C5.00058 12.7666 4.94785 13.0306 4.84492 13.2765C4.742 13.5224 4.59094 13.7453 4.40065 13.932C4.21035 14.1187 3.98465 14.2654 3.73682 14.3636C3.48899 14.4619 3.22402 14.5095 2.95749 14.5039C2.69097 14.4982 2.42827 14.4393 2.18483 14.3306C1.94139 14.222 1.72214 14.0658 1.53995 13.8712C1.35776 13.6765 1.21632 13.4475 1.12393 13.1974C1.03155 12.9473 0.990095 12.6813 1.002 12.415C0.709048 12.3119 0.455323 12.1204 0.275844 11.8669C0.0963656 11.6135 -1.6752e-05 11.3106 2.18391e-09 11L2.18391e-09 4ZM1.294 11.456C1.47499 11.1602 1.72977 10.9166 2.03333 10.749C2.33689 10.5815 2.6788 10.4957 3.02552 10.5001C3.37223 10.5046 3.71184 10.5991 4.01101 10.7743C4.31018 10.9496 4.55864 11.1997 4.732 11.5H10.268C10.4435 11.196 10.696 10.9435 11 10.768V4C11 3.86739 10.9473 3.74021 10.8536 3.64645C10.7598 3.55268 10.6326 3.5 10.5 3.5H1.5C1.36739 3.5 1.24021 3.55268 1.14645 3.64645C1.05268 3.74021 1 3.86739 1 4V11C0.999921 11.0962 1.02762 11.1905 1.07977 11.2713C1.13192 11.3522 1.20631 11.4163 1.294 11.456ZM12 10.5C12.3511 10.5 12.6959 10.5924 13 10.768C13.304 10.9435 13.5565 11.196 13.732 11.5H14.5C14.6326 11.5 14.7598 11.4473 14.8536 11.3536C14.9473 11.2598 15 11.1326 15 11V8.85C14.9998 8.73653 14.961 8.62651 14.89 8.538L13.41 6.688C13.3632 6.62944 13.3039 6.58214 13.2364 6.5496C13.1689 6.51706 13.0949 6.50011 13.02 6.5H12V10.5ZM3 11.5C2.73478 11.5 2.48043 11.6054 2.29289 11.7929C2.10536 11.9804 2 12.2348 2 12.5C2 12.7652 2.10536 13.0196 2.29289 13.2071C2.48043 13.3946 2.73478 13.5 3 13.5C3.26522 13.5 3.51957 13.3946 3.70711 13.2071C3.89464 13.0196 4 12.7652 4 12.5C4 12.2348 3.89464 11.9804 3.70711 11.7929C3.51957 11.6054 3.26522 11.5 3 11.5ZM12 11.5C11.7348 11.5 11.4804 11.6054 11.2929 11.7929C11.1054 11.9804 11 12.2348 11 12.5C11 12.7652 11.1054 13.0196 11.2929 13.2071C11.4804 13.3946 11.7348 13.5 12 13.5C12.2652 13.5 12.5196 13.3946 12.7071 13.2071C12.8946 13.0196 13 12.7652 13 12.5C13 12.2348 12.8946 11.9804 12.7071 11.7929C12.5196 11.6054 12.2652 11.5 12 11.5Z" fill="#222222"/>
</g>
<defs>
<clipPath id="clip0_262_3713">
<rect width="16" height="16" fill="white" transform="translate(0 0.5)"/>
</clipPath>
</defs>
</svg>
